<svg width="42" height="42" viewBox="0 0 42 42" fill="none" xmlns="http://www.w3.org/2000/svg">
<path d="M40.5899 18.7197C40.5156 18.6372 40.4397 18.5562 40.3602 18.4774C39.7221 17.8361 38.9301 17.3214 38.0387 16.9688C37.1474 16.6162 36.1778 16.4341 35.1968 16.4349C35.082 16.4349 34.968 16.4349 34.8558 16.4424L34.2246 16.4944C33.0428 16.589 31.8444 16.6691 30.6292 16.7345L29.8754 13.0338L29.271 10.0816L28.7236 7.40584L28.1192 4.45436L27.4975 1.41741L27.4319 1.09484C27.321 0.745314 27.0656 0.442693 26.7137 0.243852C26.3619 0.0450104 25.9377 -0.03636 25.5211 0.0150341C25.1044 0.0664282 24.7239 0.247048 24.4511 0.522946C24.1782 0.798844 24.0318 1.15102 24.0394 1.51329C24.0394 1.53336 24.0394 1.55268 24.0394 1.57275L24.1206 1.96816L24.63 4.45659L17.3685 4.46551L17.8805 1.96816L17.9616 1.57275C17.9616 1.55268 17.9616 1.53336 17.9616 1.51329C17.9642 1.15423 17.8156 0.806529 17.5434 0.534428C17.2713 0.262327 16.8939 0.0842225 16.481 0.0330245C16.0682 -0.0181734 15.6477 0.0609962 15.2974 0.255904C14.9471 0.450812 14.6905 0.748284 14.5752 1.09335L14.5096 1.41592L13.8845 4.46997L13.2801 7.42293L12.7318 10.0987L12.1274 13.0516L11.4254 16.481C10.2741 16.3883 9.13955 16.2816 8.02168 16.1607C7.79765 16.126 7.57171 16.1012 7.34474 16.0863C7.16803 16.0735 6.98843 16.0673 6.80596 16.0678C5.81825 16.0668 4.8422 16.2514 3.94593 16.6087C3.04965 16.9659 2.25474 17.4872 1.61666 18.1362C1.56485 18.1875 1.51477 18.2403 1.46556 18.2938C0.780309 19.0416 0.31668 19.9217 0.114659 20.8582C-0.0873614 21.7946 -0.0217089 22.7593 0.305954 23.669L0.522679 24.1826L6.41395 38.1135L6.80855 39.0478L7.02268 39.5539C7.47002 40.2431 8.1077 40.8268 8.87935 41.2534C9.65099 41.68 10.5328 41.9364 11.447 42H30.5999C31.6242 41.9285 32.6057 41.6151 33.4363 41.0942C34.2669 40.5733 34.9143 39.8651 35.3074 39.0478C35.3272 39.0076 35.3453 38.9675 35.3635 38.9274L35.3678 38.9185L35.4248 38.7824L41.2962 24.8902L41.8082 23.6802C42.0482 22.8274 42.0632 21.9391 41.8519 21.0807C41.6406 20.2222 41.2085 19.4155 40.5873 18.7197H40.5899ZM16.764 7.42219L25.2362 7.41178L25.7836 10.0875L16.2166 10.0994L16.764 7.42219ZM15.6114 13.0486L26.3888 13.0338L27.1754 16.8757C25.7652 16.9173 24.3382 16.9381 22.8945 16.9381C20.1574 16.9381 17.4729 16.8638 14.8645 16.7151L15.6114 13.0486ZM37.7699 24.6048C37.7106 24.7824 37.6371 24.9563 37.5497 25.1251L36.302 28.0743L33.9336 33.6792L32.7602 36.4553L32.5875 36.8656C32.5484 36.9786 32.5017 37.0895 32.4476 37.1978C32.2153 37.6539 31.8643 38.0579 31.4218 38.3787C30.9792 38.6995 30.457 38.9284 29.8953 39.0478H12.1515C11.1951 38.8428 10.3688 38.3254 9.84787 37.6051C9.58674 37.2428 9.41536 36.8379 9.34448 36.4159L8.1702 33.6376L5.66189 27.7027L4.37968 24.671C4.35723 24.6212 4.33564 24.5706 4.31492 24.5223C4.14527 24.0955 4.05863 23.6475 4.05848 23.1963C4.05848 21.0104 6.0444 19.2355 8.5078 19.2095C8.86872 19.2462 9.23108 19.2811 9.59488 19.3143C10.0013 19.3515 10.41 19.3871 10.821 19.4213L10.2027 22.4419L10.1371 22.7704C10.1371 22.8002 10.1371 22.8314 10.1371 22.8626C10.1345 23.2186 10.2804 23.5636 10.5483 23.8348C10.8162 24.106 11.1882 24.2855 11.5968 24.3405C12.0054 24.3956 12.4233 24.3226 12.7747 24.1349C13.1261 23.9472 13.3875 23.6571 13.5115 23.3175L13.5918 22.9236L14.2601 19.6577C16.9281 19.8063 19.6704 19.8888 22.4697 19.8888C24.2622 19.8888 26.0311 19.8569 27.7764 19.793L28.4179 22.9236L28.4991 23.3175C28.6231 23.6571 28.8845 23.9472 29.2359 24.1349C29.5872 24.3226 30.0052 24.3956 30.4138 24.3405C30.8223 24.2855 31.1944 24.106 31.4623 23.8348C31.7301 23.5636 31.876 23.2186 31.8734 22.8626C31.8734 22.8314 31.8734 22.8002 31.8691 22.7704L31.8018 22.439L31.225 19.625C31.7356 19.5943 32.2427 19.5606 32.7464 19.5239C32.9336 19.4992 33.1225 19.4851 33.3119 19.4815H33.4535C35.942 19.4815 37.959 21.2654 37.959 23.4684C37.9582 23.8529 37.8945 24.2355 37.7699 24.6048Z" fill="url(#paint0_linear)"/>
<defs>
<linearGradient id="paint0_linear" x1="21" y1="0" x2="21" y2="42" gradientUnits="userSpaceOnUse">
<stop stop-color="#C37D3C"/>
<stop offset="1" stop-color="#AD734B"/>
</linearGradient>
</defs>
</svg>
