<svg width="52" height="52" viewBox="0 0 52 52" fill="none" xmlns="http://www.w3.org/2000/svg">
<path d="M50.2542 23.1768C50.1622 23.0746 50.0682 22.9743 49.9698 22.8768C49.1797 22.0827 48.1991 21.4455 47.0956 21.009C45.992 20.5724 44.7916 20.3469 43.577 20.348C43.4349 20.348 43.2937 20.348 43.1548 20.3572L42.3733 20.4216C40.9102 20.5388 39.4264 20.6379 37.9219 20.7189L36.9886 16.1371L36.2403 12.4819L35.5626 9.16913L34.8142 5.51492L34.0445 1.75489L33.9633 1.35551C33.826 0.92277 33.5098 0.548097 33.0741 0.301912C32.6385 0.0557272 32.1134 -0.0450172 31.5975 0.0186136C31.0817 0.0822444 30.6106 0.305869 30.2728 0.647457C29.9349 0.989045 29.7537 1.42508 29.7631 1.8736C29.7631 1.89844 29.7631 1.92237 29.7631 1.94722L29.8636 2.43678L30.4943 5.51768L21.5038 5.52873L22.1377 2.43678L22.2382 1.94722C22.2382 1.92237 22.2382 1.89844 22.2382 1.8736C22.2413 1.42905 22.0574 0.998559 21.7204 0.661673C21.3835 0.324786 20.9162 0.104275 20.4051 0.0408875C19.8939 -0.0225004 19.3734 0.0755191 18.9396 0.316834C18.5059 0.558148 18.1883 0.926446 18.0455 1.35367L17.9643 1.75305L17.1903 5.53425L16.442 9.19029L15.7631 12.5031L15.0148 16.1591L14.1457 20.4051C12.7203 20.2903 11.3156 20.1581 9.93161 20.0084C9.65423 19.9656 9.3745 19.9348 9.09349 19.9164C8.8747 19.9005 8.65234 19.8928 8.42642 19.8934C7.20355 19.8922 5.99511 20.1208 4.88543 20.5631C3.77576 21.0054 2.79158 21.6509 2.00158 22.4544C1.93744 22.5179 1.87544 22.5832 1.8145 22.6495C0.966097 23.5754 0.39208 24.665 0.141959 25.8244C-0.108162 26.9838 -0.0268777 28.1782 0.378801 29.3045L0.647126 29.9404L7.94108 47.1882L8.42963 48.3449L8.69475 48.9715C9.2486 49.8248 10.0381 50.5474 10.9935 51.0756C11.9488 51.6038 13.0407 51.9213 14.1724 52H37.8855C39.1537 51.9115 40.3689 51.5234 41.3973 50.8785C42.4257 50.2336 43.2273 49.3568 43.7139 48.3449C43.7385 48.2952 43.7609 48.2455 43.7834 48.1958L43.7887 48.1848L43.8593 48.0164L51.1286 30.8165L51.7626 29.3183C52.0597 28.2625 52.0782 27.1627 51.8166 26.0999C51.555 25.037 51.02 24.0382 50.251 23.1768H50.2542ZM20.7555 9.18937L31.2448 9.17649L31.9225 12.4893L20.0777 12.504L20.7555 9.18937ZM19.3283 16.1555L32.6719 16.1371L33.6458 20.8937C31.8997 20.9452 30.133 20.971 28.3456 20.971C24.9568 20.971 21.6332 20.879 18.4036 20.6949L19.3283 16.1555ZM46.7627 30.4631C46.6894 30.683 46.5983 30.8982 46.4901 31.1073L44.9454 34.7587L42.0131 41.6981L40.5602 45.1351L40.3464 45.6431C40.298 45.783 40.2402 45.9203 40.1733 46.0544C39.8856 46.6191 39.4511 47.1194 38.9032 47.5165C38.3553 47.9136 37.7086 48.1971 37.0132 48.3449H15.0448C13.8605 48.0911 12.8376 47.4505 12.1926 46.5587C11.8693 46.1101 11.6571 45.6089 11.5694 45.0864L10.1155 41.6466L7.00996 34.2986L5.42246 30.545C5.39467 30.4833 5.36794 30.4208 5.34228 30.361C5.13224 29.8325 5.02497 29.2778 5.02478 28.7193C5.02478 26.0129 7.48354 23.8154 10.5335 23.7832C10.9803 23.8286 11.429 23.8718 11.8794 23.9129C12.3825 23.959 12.8885 24.0031 13.3974 24.0455L12.632 27.7852L12.5507 28.192C12.5507 28.2288 12.5507 28.2674 12.5507 28.3061C12.5475 28.7468 12.7282 29.1739 13.0598 29.5097C13.3915 29.8455 13.8521 30.0677 14.3579 30.1359C14.8638 30.2041 15.3813 30.1137 15.8163 29.8813C16.2513 29.6489 16.575 29.2898 16.7285 28.8693L16.8279 28.3816L17.6553 24.3381C20.9586 24.5221 24.3538 24.6243 27.8196 24.6243C30.0389 24.6243 32.229 24.5847 34.3898 24.5056L35.1841 28.3816L35.2846 28.8693C35.4381 29.2898 35.7618 29.6489 36.1968 29.8813C36.6318 30.1137 37.1493 30.2041 37.6551 30.1359C38.161 30.0677 38.6216 29.8455 38.9533 29.5097C39.2849 29.1739 39.4656 28.7468 39.4624 28.3061C39.4624 28.2674 39.4624 28.2288 39.457 28.192L39.3736 27.7816L38.6595 24.2976C39.2917 24.2596 39.9195 24.2178 40.5431 24.1725C40.775 24.1419 41.0089 24.1244 41.2434 24.12H41.4187C44.4996 24.12 46.9968 26.3285 46.9968 29.0561C46.9959 29.5322 46.917 30.0059 46.7627 30.4631Z" fill="url(#paint0_linear)"/>
<defs>
<linearGradient id="paint0_linear" x1="26" y1="0" x2="26" y2="52" gradientUnits="userSpaceOnUse">
<stop stop-color="#C37D3C"/>
<stop offset="1" stop-color="#AD734B"/>
</linearGradient>
</defs>
</svg>
