<svg width="656" height="432" viewBox="0 0 656 432" fill="none" xmlns="http://www.w3.org/2000/svg">
<path d="M428.136 188.63C427.38 192.606 426.473 196.542 425.416 200.437C425.301 200.89 425.173 201.335 425.045 201.787H410.339C409.086 201.789 407.886 202.287 407 203.173C406.114 204.059 405.616 205.26 405.615 206.513V248.451C405.169 249.281 404.717 250.105 404.265 250.929C401.93 255.182 399.5 259.388 397.016 263.54C356.518 331.021 300.034 387.49 232.551 427.963L236.547 418.943C235.082 418.842 233.611 418.741 232.147 418.64C200.258 416.459 168.261 414.042 137.121 406.872C104.544 399.372 72.676 386.363 47.1447 364.793C21.6065 343.216 2.88506 312.404 0.286647 279.067C-0.579784 267.61 0.578566 256.09 3.70857 245.035C9.69463 223.756 22.7743 204.609 41.6444 193.281C71.2857 175.492 109.95 179.117 141.198 193.916C172.439 208.707 197.869 233.194 222.698 257.254C197.629 214.252 162.725 177.807 120.85 150.911C106.974 142.027 92.2479 134.114 80.4508 122.604C68.6602 111.1 59.9608 94.9715 62.0464 78.6271C64.4151 60.0886 79.5937 46.0193 94.7989 35.1703C100.873 30.8361 107.143 26.7247 113.608 22.9441C131.851 12.2503 151.585 4.18275 172.425 1.19201C200.656 -2.8654 231.148 3.29161 252.792 21.8706C277.176 42.8058 287.177 76.568 286.226 108.865C301.249 87.0187 324.418 70.2963 350.584 69.5874C377.748 68.8583 403.57 86.0263 417.176 109.561C430.775 133.088 433.218 161.929 428.136 188.63Z" fill="#02B74B"/>
<path d="M256.268 279.361C272.179 277.96 286.876 276.322 302.293 271.958C317.238 267.728 331.618 260.646 342.257 249.084C353.7 236.647 359.876 220.496 364.234 204.418C366.664 195.454 368.661 186.364 370.545 177.272C372.589 167.406 374.405 157.497 375.993 147.544C379.155 127.733 381.412 107.805 382.764 87.7607C382.928 85.3276 383.078 82.8936 383.214 80.4588C383.298 78.9568 380.963 78.9616 380.879 80.4588C379.767 100.217 377.769 119.898 374.882 139.502C372.034 158.763 368.389 177.941 363.765 196.856C359.848 212.881 354.776 229.156 344.729 242.495C335.308 255.005 321.7 263.179 307.008 268.067C292.057 273.04 276.293 275.026 260.67 276.502C258.753 276.684 258.186 276.856 256.268 277.025C254.783 277.156 254.769 279.493 256.268 279.361L256.268 279.361Z" fill="white"/>
<path d="M5.05587 246.758C25.1297 247.872 44.9993 251.375 64.2446 257.192C83.4982 262.997 102 271.053 119.367 281.193C136.149 290.999 151.727 302.732 165.787 316.154C179.432 329.188 191.592 343.693 202.047 359.403C212.549 375.153 221.253 392.031 227.994 409.721C228.816 411.886 229.608 414.062 230.37 416.25C230.862 417.66 233.118 417.053 232.621 415.629C226.314 397.565 218 380.267 207.834 364.059C197.67 347.85 185.741 332.818 172.266 319.237C158.576 305.447 143.339 293.283 126.859 282.989C92.2566 261.428 53.0348 248.384 12.4146 244.93C9.96426 244.724 7.51137 244.555 5.0559 244.422C3.55426 244.34 3.55887 246.676 5.0559 246.758L5.05587 246.758Z" fill="white"/>
<path d="M114.239 25.6823C127.073 29.7655 139.239 35.7124 150.346 43.3325C161.696 51.172 172.047 60.3675 181.17 70.7151C190.784 81.6004 199.331 93.3835 206.694 105.903C214.504 119.121 221.289 132.919 226.989 147.176C232.858 161.812 237.794 176.806 241.768 192.067C245.807 207.509 248.962 223.169 251.218 238.97C253.462 254.604 254.82 270.353 255.286 286.14C255.755 301.236 255.309 316.347 253.95 331.389C252.707 345.422 250.437 359.346 247.158 373.047C244.247 385.422 240.143 397.486 234.906 409.069C233.692 411.698 232.405 414.29 231.044 416.847C230.338 418.173 232.353 419.354 233.06 418.026C238.848 406.962 243.47 395.326 246.851 383.305C250.644 369.924 253.394 356.268 255.075 342.461C256.939 327.482 257.846 312.399 257.792 297.304C257.759 281.445 256.815 265.602 254.966 249.852C253.116 233.905 250.369 218.075 246.739 202.437C243.117 186.774 238.523 171.352 232.984 156.26C227.645 141.651 221.252 127.448 213.856 113.765C206.812 100.708 198.603 88.3143 189.33 76.7348C180.523 65.7095 170.468 55.7422 159.367 47.0325C148.662 38.6592 136.834 31.8339 124.228 26.7572C121.148 25.5308 118.025 24.4216 114.859 23.4298C113.422 22.9776 112.808 25.232 114.239 25.6823H114.239Z" fill="white"/>
<path d="M252.751 432C345.002 432 419.787 428.977 419.787 425.249C419.787 421.52 345.002 418.498 252.751 418.498C160.499 418.498 85.7144 421.52 85.7144 425.249C85.7144 428.977 160.499 432 252.751 432Z" fill="#BB7A41"/>
<path d="M400.329 213.797C400.246 214.162 400.192 214.532 400.168 214.905L371.176 231.635L364.129 227.577L356.617 237.415L371.692 248.163L404.767 222.062C406.116 222.561 407.585 222.638 408.979 222.281C410.372 221.925 411.625 221.153 412.569 220.068C413.513 218.982 414.105 217.635 414.265 216.205C414.425 214.775 414.146 213.331 413.466 212.063C412.785 210.795 411.735 209.765 410.454 209.109C409.174 208.453 407.725 208.203 406.299 208.391C404.873 208.58 403.538 209.198 402.471 210.163C401.405 211.129 400.658 212.397 400.329 213.797Z" fill="#FFB8B8"/>
<path d="M334.302 224.062L357.13 240.337L367.34 227.532L345.149 209.721C344.194 208.955 343.093 208.391 341.914 208.066C340.734 207.74 339.5 207.659 338.287 207.827C337.075 207.995 335.909 208.409 334.862 209.043C333.816 209.677 332.909 210.519 332.199 211.516C330.814 213.459 330.258 215.872 330.653 218.225C331.047 220.578 332.36 222.677 334.302 224.062Z" fill="#BB7A41"/>
<path d="M287.18 409.763L295.184 411.86L307.083 381.977L295.27 378.881L287.18 409.763Z" fill="#FFB8B8"/>
<path d="M308.673 423.341L283.518 416.748L286.065 407.026L301.501 411.072C304.078 411.747 306.282 413.419 307.627 415.72C308.972 418.021 309.349 420.763 308.673 423.341Z" fill="#2F2E41"/>
<path d="M358.33 415.463L366.475 414.008L364.739 381.888L352.718 384.036L358.33 415.463Z" fill="#FFB8B8"/>
<path d="M383.535 418.767L357.936 423.341L356.169 413.447L371.877 410.64C373.176 410.408 374.508 410.434 375.797 410.717C377.086 411 378.306 411.534 379.389 412.289C380.471 413.043 381.394 414.004 382.106 415.115C382.817 416.227 383.303 417.468 383.535 418.767Z" fill="#2F2E41"/>
<path d="M342.291 179.247C344.298 179.736 345.931 181.782 346.912 184.152C347.816 186.641 348.428 189.227 348.737 191.858C349.507 196.757 350.247 202.061 348.653 206.598C346.786 211.916 341.809 214.702 337.491 213.393C333.174 212.084 329.741 207.17 328.568 201.515C327.5 195.8 328.188 189.896 330.541 184.58C331.768 181.787 333.458 179.21 335.704 177.95C336.806 177.284 338.12 177.059 339.38 177.322C340.641 177.585 341.755 178.315 342.499 179.367" fill="#2F2E41"/>
<path d="M353.647 267.948L369.154 406.882L356.347 411.747L332.726 318.581L299.839 403.766L285.821 404.545C285.821 404.545 305.055 271.999 319.31 268.987L353.647 267.948Z" fill="#2F2E41"/>
<path d="M340.622 196.978C349.777 196.978 357.199 189.554 357.199 180.397C357.199 171.239 349.777 163.815 340.622 163.815C331.468 163.815 324.046 171.239 324.046 180.397C324.046 189.554 331.468 196.978 340.622 196.978Z" fill="#FFB8B8"/>
<path d="M347.737 203.934L329.824 201.597C329.824 201.597 318.142 215.62 318.92 239.771C319.699 263.923 316.973 271.324 316.973 271.324L354.322 271.999C348.923 264.573 371.506 221.921 347.737 203.934Z" fill="#BB7A41"/>
<path d="M357.359 275.374C356.986 275.377 356.613 275.409 356.245 275.471L333.329 251.068L335.665 243.277L324.372 238.213L317.363 255.353L350.333 281.587C350.155 283.015 350.417 284.463 351.082 285.739C351.748 287.014 352.786 288.057 354.058 288.728C355.331 289.399 356.777 289.667 358.205 289.496C359.633 289.324 360.976 288.722 362.053 287.769C363.131 286.817 363.893 285.558 364.238 284.161C364.584 282.764 364.496 281.296 363.986 279.95C363.477 278.605 362.57 277.446 361.386 276.629C360.202 275.811 358.798 275.374 357.359 275.374Z" fill="#FFB8B8"/>
<path d="M332.26 213.428L321.646 239.382L336.444 246.394L348.699 220.709C349.226 219.604 349.522 218.403 349.569 217.179C349.616 215.956 349.413 214.736 348.972 213.593C348.531 212.451 347.861 211.411 347.004 210.537C346.147 209.662 345.121 208.972 343.988 208.509C342.895 208.062 341.725 207.834 340.544 207.839C339.363 207.844 338.195 208.082 337.105 208.539C336.016 208.996 335.028 209.663 334.197 210.502C333.365 211.341 332.707 212.335 332.26 213.428Z" fill="#BB7A41"/>
<path d="M336.286 195.471C338.884 193.972 339.161 190.357 338.808 187.378C338.455 184.4 337.865 181.079 339.616 178.644C341.704 175.737 345.901 175.679 349.479 175.584C353.056 175.489 357.413 174.441 358.34 170.984C358.952 168.699 357.642 166.247 355.761 164.813C353.881 163.379 351.528 162.745 349.242 162.142C344.126 160.794 338.845 159.435 333.607 160.176C328.419 160.91 323.729 163.657 320.55 167.824C317.372 171.991 315.962 177.242 316.625 182.441C317.472 189.092 318.702 191.996 317.895 194.928C316.392 200.39 309.91 203.899 309.781 209.562C309.68 213.992 313.592 217.41 317.409 219.659C320.436 221.443 323.703 222.957 327.192 223.375C330.681 223.793 334.437 222.993 337.036 220.628C340.388 217.577 341.217 212.48 340.256 208.05C339.295 203.62 336.829 199.685 334.39 195.865" fill="#2F2E41"/>
<path d="M649.926 200.437H410.338C408.728 200.44 407.185 201.081 406.046 202.22C404.908 203.358 404.267 204.903 404.264 206.513V360.438C404.267 362.049 404.908 363.593 406.046 364.732C407.185 365.871 408.728 366.512 410.338 366.514H649.926C651.536 366.512 653.08 365.871 654.218 364.732C655.357 363.593 655.997 362.049 656 360.438V206.513C655.997 204.903 655.357 203.358 654.218 202.22C653.08 201.081 651.536 200.44 649.926 200.437ZM654.65 360.438C654.649 361.691 654.151 362.892 653.265 363.778C652.379 364.664 651.178 365.163 649.926 365.164H410.338C409.086 365.163 407.885 364.664 406.999 363.778C406.114 362.892 405.616 361.691 405.614 360.438V206.513C405.616 205.26 406.114 204.059 406.999 203.173C407.885 202.287 409.086 201.789 410.338 201.787H649.926C651.178 201.789 652.379 202.287 653.265 203.173C654.151 204.059 654.649 205.26 654.65 206.513V360.438Z" fill="#6E577D"/>
<path d="M461.479 277.059H423.685C422.164 277.057 420.706 276.452 419.63 275.376C418.555 274.301 417.95 272.842 417.948 271.321V233.515C417.95 231.993 418.555 230.535 419.63 229.459C420.706 228.383 422.164 227.778 423.685 227.776H461.479C463 227.778 464.458 228.383 465.533 229.459C466.609 230.535 467.214 231.993 467.216 233.515V271.321C467.214 272.842 466.609 274.301 465.533 275.376C464.458 276.452 463 277.057 461.479 277.059Z" fill="#BB7A41"/>
<path d="M637.448 317.235H422.832C421.668 317.235 420.552 316.772 419.73 315.949C418.907 315.126 418.445 314.01 418.445 312.846C418.445 311.682 418.907 310.566 419.73 309.743C420.552 308.92 421.668 308.458 422.832 308.458H637.448C638.612 308.458 639.727 308.92 640.55 309.743C641.373 310.566 641.835 311.682 641.835 312.846C641.835 314.01 641.373 315.126 640.55 315.949C639.727 316.772 638.612 317.235 637.448 317.235Z" fill="#CCCCCC"/>
<path d="M637.592 295.969H422.976C421.812 295.969 420.696 295.506 419.874 294.683C419.051 293.86 418.589 292.744 418.589 291.58C418.589 290.417 419.051 289.3 419.874 288.477C420.696 287.654 421.812 287.192 422.976 287.192H637.592C638.755 287.192 639.871 287.654 640.694 288.477C641.517 289.3 641.979 290.417 641.979 291.58C641.979 292.744 641.517 293.86 640.694 294.683C639.871 295.506 638.755 295.969 637.592 295.969Z" fill="#CCCCCC"/>
<path d="M531.634 266.932H499.914C498.75 266.932 497.634 266.47 496.812 265.647C495.989 264.824 495.527 263.708 495.527 262.544C495.527 261.38 495.989 260.264 496.812 259.441C497.634 258.618 498.75 258.156 499.914 258.156H531.634C532.797 258.156 533.913 258.618 534.736 259.441C535.558 260.264 536.021 261.38 536.021 262.544C536.021 263.708 535.558 264.824 534.736 265.647C533.913 266.47 532.797 266.932 531.634 266.932Z" fill="#CCCCCC"/>
<path d="M637.592 245.335H499.914C498.75 245.335 497.634 244.873 496.812 244.05C495.989 243.227 495.527 242.111 495.527 240.947C495.527 239.783 495.989 238.667 496.812 237.844C497.634 237.021 498.75 236.559 499.914 236.559H637.592C638.756 236.559 639.871 237.021 640.694 237.844C641.517 238.667 641.979 239.783 641.979 240.947C641.979 242.111 641.517 243.227 640.694 244.05C639.871 244.873 638.756 245.335 637.592 245.335Z" fill="#CCCCCC"/>
<path d="M526.235 338.838H422.832C421.668 338.838 420.552 338.376 419.73 337.553C418.907 336.73 418.445 335.614 418.445 334.45C418.445 333.286 418.907 332.17 419.73 331.347C420.552 330.524 421.668 330.062 422.832 330.062H526.235C527.398 330.062 528.514 330.524 529.336 331.347C530.159 332.17 530.621 333.286 530.621 334.45C530.621 335.614 530.159 336.73 529.336 337.553C528.514 338.376 527.398 338.838 526.235 338.838Z" fill="#CCCCCC"/>
</svg>
