<svg width="24" height="24" viewBox="0 0 24 24" fill="none" xmlns="http://www.w3.org/2000/svg">
<g clip-path="url(#clip0)">
<path d="M23.9887 11.2725C23.88 12.345 22.9162 13.125 21.84 13.125H19.875C19.4175 13.125 19.0575 13.53 19.1362 14.0025C19.1962 14.37 19.5412 14.625 19.9162 14.625H21.1875C22.1737 14.625 22.9687 15.48 22.8675 16.485C22.7775 17.3625 21.99 18 21.1087 18H19.125C18.6675 18 18.3075 18.405 18.3862 18.8775C18.4462 19.245 18.7912 19.5 19.1662 19.5H20.4375C20.9025 19.5 21.3262 19.6875 21.63 19.995C21.9375 20.2987 22.125 20.7225 22.125 21.1875C22.125 22.1213 21.3712 22.875 20.4375 22.875H3.93749C3.36749 22.875 2.84999 22.6425 2.47874 22.2712C2.10749 21.9 1.87499 21.3825 1.87499 20.8125C1.87499 19.6725 2.79749 18.75 3.93749 18.75H5.24999C5.70749 18.75 6.06749 18.345 5.98874 17.8725C5.92874 17.505 5.58374 17.25 5.20874 17.25H2.06249C1.07624 17.25 0.28124 16.395 0.38249 15.39C0.47249 14.5125 1.25999 13.875 2.14124 13.875H4.87499C5.51624 13.875 6.03374 13.3387 5.99999 12.69C5.96624 12.0825 5.41874 11.625 4.81124 11.625H1.68749C0.701239 11.625 -0.0937605 10.77 0.0074895 9.765C0.0974895 8.8875 0.88874 8.25 1.76624 8.25H5.43749C5.90249 8.25 6.32624 8.0625 6.62999 7.755C6.93749 7.45125 7.12499 7.0275 7.12499 6.5625C7.12499 5.62875 6.37124 4.875 5.43749 4.875H3.18749C2.61749 4.875 2.09999 4.6425 1.72874 4.27125C1.35749 3.9 1.12499 3.3825 1.12499 2.8125C1.12499 1.6725 2.04749 0.75 3.18749 0.75H21.1875C22.3912 0.75 23.3625 1.79625 23.2387 3.0225C23.13 4.095 22.5412 4.875 21.465 4.875H20.8125C19.6725 4.875 18.75 5.7975 18.75 6.9375C18.75 7.5075 18.9825 8.025 19.3537 8.39625C19.725 8.7675 20.2425 9 20.8125 9H21.9375C23.1412 9 24.1125 10.0462 23.9887 11.2725Z" fill="url(#paint0_radial)"/>
<path d="M17.7976 5.8125L17.2838 6.3675C16.7813 6.9075 15.9713 6.99375 15.3526 6.5925C14.3363 5.93625 12.9413 5.41875 11.2276 5.70375C9.37507 6.015 7.78882 7.1475 6.86257 8.6925L3.85132 6.4125C5.62132 3.6825 8.70007 1.875 12.1876 1.875C14.0626 1.875 15.9151 2.46 17.5388 3.5475C18.3038 4.06125 18.4238 5.14125 17.7976 5.8125Z" fill="url(#paint1_linear)"/>
<path d="M6.00374 11.5913C5.96999 12.5175 6.14249 13.4025 6.47999 14.2013L3.40124 16.47C2.89499 15.5288 2.53874 14.49 2.36999 13.3875C1.97249 10.8075 2.57249 8.37001 3.85124 6.41251L6.86249 8.69251C6.34874 9.55126 6.03749 10.5413 6.00374 11.5913Z" fill="url(#paint2_linear)"/>
<path d="M18.9186 19.23C17.2124 20.7563 14.9399 21.6938 12.4086 21.7463C8.59112 21.825 5.12237 19.6988 3.40112 16.47L6.47987 14.2013C7.41737 16.4288 9.62612 18 12.1874 18C13.6649 18 15.0074 17.52 16.0611 16.71L18.9186 19.23Z" fill="url(#paint3_linear)"/>
<path d="M22.125 11.9887C22.1287 14.8875 20.9025 17.4562 18.9187 19.23L16.0613 16.71C16.8488 16.1063 17.475 15.3187 17.8762 14.4037C17.985 14.1562 17.8012 13.875 17.5312 13.875H13.875C13.0462 13.875 12.375 13.2038 12.375 12.375V11.625C12.375 10.7962 13.0462 10.125 13.875 10.125H20.25C21.2812 10.125 22.125 10.9575 22.125 11.9887Z" fill="url(#paint4_linear)"/>
</g>
<defs>
<radialGradient id="paint0_radial" cx="0" cy="0" r="1" gradientUnits="userSpaceOnUse" gradientTransform="translate(11.9992 11.8125) scale(11.541)">
<stop stop-color="#F4E9C3"/>
<stop offset="0.219" stop-color="#F8EECD"/>
<stop offset="0.644" stop-color="#FDF4DC"/>
<stop offset="1" stop-color="#FFF6E1"/>
</radialGradient>
<linearGradient id="paint1_linear" x1="11.0254" y1="23.226" x2="11.0254" y2="-15.2752" gradientUnits="userSpaceOnUse">
<stop stop-color="#FF5840"/>
<stop offset="0.007" stop-color="#FF5840"/>
<stop offset="0.989" stop-color="#FA528C"/>
<stop offset="1" stop-color="#FA528C"/>
</linearGradient>
<linearGradient id="paint2_linear" x1="4.55549" y1="24.423" x2="4.55549" y2="6.82051" gradientUnits="userSpaceOnUse">
<stop stop-color="#FEAA53"/>
<stop offset="0.612" stop-color="#FFCD49"/>
<stop offset="1" stop-color="#FFDE44"/>
</linearGradient>
<linearGradient id="paint3_linear" x1="11.1599" y1="12.6941" x2="11.1599" y2="27.3521" gradientUnits="userSpaceOnUse">
<stop stop-color="#42D778"/>
<stop offset="0.428" stop-color="#3DCA76"/>
<stop offset="1" stop-color="#34B171"/>
</linearGradient>
<linearGradient id="paint4_linear" x1="17.25" y1="23.3857" x2="17.25" y2="11.4026" gradientUnits="userSpaceOnUse">
<stop stop-color="#155CDE"/>
<stop offset="0.278" stop-color="#1F7FE5"/>
<stop offset="0.569" stop-color="#279CEB"/>
<stop offset="0.82" stop-color="#2CAFEF"/>
<stop offset="1" stop-color="#2EB5F0"/>
</linearGradient>
<clipPath id="clip0">
<rect width="24" height="24" fill="white"/>
</clipPath>
</defs>
</svg>
