<svg width="35" height="22" viewBox="0 0 35 22" fill="none" xmlns="http://www.w3.org/2000/svg">
<path d="M23.9674 0.402344C21.5501 0.402344 19.32 1.16517 17.5 2.44192C15.68 1.16517 13.4499 0.402344 11.0326 0.402344C4.94946 0.402344 0 5.17825 0 11.0481C0 16.9179 4.94946 21.6938 11.0326 21.6938C13.4499 21.6938 15.68 20.931 17.5 19.6543C19.32 20.931 21.5501 21.6938 23.9674 21.6938C30.0505 21.6938 35 16.9179 35 11.0481C35 5.17825 30.0505 0.402344 23.9674 0.402344ZM17.5 16.7153C16.0871 15.2154 15.2174 13.2301 15.2174 11.0481C15.2174 8.86608 16.0871 6.88083 17.5 5.38089C18.9129 6.88083 19.7826 8.86608 19.7826 11.0481C19.7826 13.2301 18.9129 15.2154 17.5 16.7153ZM23.9674 19.4913C22.2242 19.4913 20.6028 18.9913 19.2371 18.1404C20.9893 16.255 22.0652 13.7734 22.0652 11.0481C22.0652 8.32278 20.9893 5.84122 19.2371 3.95582C20.6028 3.1049 22.2242 2.60491 23.9674 2.60491C28.7921 2.60491 32.7174 6.3926 32.7174 11.0481C32.7174 15.7036 28.7921 19.4913 23.9674 19.4913Z" fill="white"/>
</svg>
