<svg width="200" height="263" viewBox="0 0 200 263" fill="none" xmlns="http://www.w3.org/2000/svg">
<path fill-rule="evenodd" clip-rule="evenodd" d="M140.774 102.842C141.439 103.429 141.966 104.125 142.327 104.892C142.687 105.659 142.872 106.481 142.872 107.312C142.872 108.142 142.687 108.964 142.327 109.731C141.966 110.498 141.439 111.194 140.774 111.781L97.9164 149.656C97.2529 150.244 96.4647 150.71 95.5969 151.028C94.7291 151.347 93.7988 151.51 92.8593 151.51C91.9197 151.51 90.9894 151.347 90.1216 151.028C89.2538 150.71 88.4656 150.244 87.8021 149.656L66.3735 130.718C65.7094 130.131 65.1826 129.435 64.8232 128.668C64.4638 127.901 64.2788 127.079 64.2788 126.249C64.2788 125.419 64.4638 124.597 64.8232 123.83C65.1826 123.063 65.7094 122.367 66.3735 121.78C67.7148 120.595 69.5339 119.929 71.4307 119.929C72.3699 119.929 73.2999 120.092 74.1676 120.41C75.0353 120.727 75.8237 121.193 76.4878 121.78L92.8593 136.261L130.659 102.842C131.323 102.254 132.111 101.788 132.979 101.47C133.847 101.152 134.777 100.988 135.716 100.988C136.656 100.988 137.586 101.152 138.454 101.47C139.322 101.788 140.11 102.254 140.774 102.842V102.842Z" fill="#02B74B"/>
<path d="M100 12.625C109.472 12.625 118.556 15.9503 125.254 21.8694C131.952 27.7886 135.714 35.8166 135.714 44.1875V50.5H64.2857V44.1875C64.2857 35.8166 68.0485 27.7886 74.7462 21.8694C81.4439 15.9503 90.528 12.625 100 12.625V12.625ZM150 50.5V44.1875C150 32.4682 144.732 21.229 135.355 12.9422C125.979 4.65545 113.261 0 100 0C86.7392 0 74.0215 4.65545 64.6447 12.9422C55.2678 21.229 50 32.4682 50 44.1875V50.5H0V176.75C0 183.447 3.0102 189.869 8.36838 194.604C13.7266 199.34 20.9938 202 28.5714 202H171.429C179.006 202 186.273 199.34 191.632 194.604C196.99 189.869 200 183.447 200 176.75V50.5H150ZM14.2857 63.125H185.714V176.75C185.714 180.098 184.209 183.31 181.53 185.677C178.851 188.045 175.217 189.375 171.429 189.375H28.5714C24.7826 189.375 21.149 188.045 18.4699 185.677C15.7908 183.31 14.2857 180.098 14.2857 176.75V63.125Z" fill="#353856"/>
<path d="M73.0149 151.646L69.2684 161.836L48.1504 154.072L51.8969 143.882L41.3379 140L2 246.998L12.559 250.88L16.3055 240.69L37.4234 248.454L33.677 258.644L44.236 262.526L83.5739 155.528L73.0149 151.646ZM65.5219 172.027L59.9022 187.312L38.7843 179.548L44.404 164.263L65.5219 172.027ZM56.1558 197.502L50.5361 212.788L29.4181 205.024L35.0378 189.738L56.1558 197.502ZM20.0519 230.499L25.6716 215.214L46.7896 222.978L41.1699 238.263L20.0519 230.499Z" fill="#BB7A41"/>
</svg>
