<svg width="392" height="361" viewBox="0 0 392 361" fill="none" xmlns="http://www.w3.org/2000/svg">
<g clip-path="url(#clip0)">
<path d="M179.996 198.618C179.926 198.618 179.882 198.616 179.867 198.615L171.485 198.616V197.381H179.897C180.092 197.388 184.065 197.5 187.727 193.058C193.183 186.439 197.663 170.052 188.024 129.578C175.063 75.1539 185.873 27.0735 191.122 8.92796C191.381 8.03023 191.427 7.08466 191.257 6.16598C191.088 5.2473 190.707 4.38067 190.144 3.63456C189.582 2.88846 188.854 2.28332 188.017 1.86697C187.181 1.45061 186.259 1.23445 185.324 1.23556H60.1491C59.1974 1.23684 58.2594 1.46244 57.4113 1.89405C56.5632 2.32566 55.8288 2.95112 55.2677 3.71967C53.0441 6.77781 49.9925 12.6528 48.0829 23.2757L46.8667 23.0573C48.8176 12.2036 51.9685 6.1558 54.2681 2.99329C54.944 2.06723 55.8287 1.31356 56.8506 0.793477C57.8724 0.27339 59.0025 0.00153877 60.1491 3.36198e-06H185.324C186.45 -0.00107994 187.561 0.259648 188.569 0.761587C189.577 1.26353 190.454 1.99292 191.132 2.89215C191.809 3.79139 192.269 4.83581 192.473 5.94292C192.677 7.05002 192.621 8.18947 192.31 9.27125C187.087 27.3226 176.333 75.1536 189.226 129.292C199.001 170.336 194.302 187.077 188.639 193.894C184.904 198.39 180.788 198.618 179.996 198.618Z" fill="#E6E6E6"/>
<path d="M157.442 221.167C157.372 221.167 157.328 221.165 157.313 221.164L148.931 221.165V219.93H157.343C157.539 219.936 161.511 220.049 165.172 215.607C170.628 208.988 175.109 192.601 165.47 152.127C152.509 97.7029 163.319 49.6225 168.568 31.477C168.827 30.5793 168.873 29.6337 168.703 28.7151C168.534 27.7964 168.152 26.9297 167.59 26.1836C167.028 25.4375 166.3 24.8324 165.463 24.416C164.626 23.9997 163.705 23.7835 162.77 23.7846H37.595C36.6433 23.7859 35.7053 24.0115 34.8572 24.4431C34.0091 24.8747 33.2747 25.5002 32.7136 26.2687C30.49 29.3269 27.4384 35.2018 25.5289 45.8247L24.3125 45.6064C26.2635 34.7527 29.4143 28.7049 31.714 25.5424C32.3899 24.6163 33.2746 23.8626 34.2964 23.3425C35.3183 22.8225 36.4484 22.5506 37.595 22.5491H162.77C163.896 22.548 165.007 22.8087 166.015 23.3107C167.023 23.8126 167.9 24.542 168.578 25.4412C169.255 26.3405 169.714 27.3849 169.919 28.492C170.123 29.5991 170.067 30.7385 169.755 31.8203C164.533 49.8717 153.779 97.7026 166.672 151.841C176.447 192.885 171.748 209.626 166.085 216.443C162.35 220.939 158.234 221.167 157.442 221.167Z" fill="#CCCCCC"/>
<path d="M134.888 243.716C134.818 243.716 134.774 243.714 134.759 243.713L11.5128 243.714C10.3262 243.716 9.15737 243.426 8.10855 242.871C7.05974 242.317 6.16291 241.513 5.49656 240.532C4.83021 239.55 4.41465 238.42 4.28624 237.241C4.15782 236.061 4.32047 234.869 4.75995 233.767C9.23172 222.597 15.2527 195.798 5.33556 141.816C-6.37488 78.0738 4.10908 55.037 9.16006 48.0912C9.83593 47.1651 10.7207 46.4114 11.7425 45.8914C12.7644 45.3713 13.8945 45.0994 15.0412 45.0979H140.216C141.342 45.0968 142.453 45.3575 143.461 45.8595C144.469 46.3614 145.346 47.0908 146.024 47.9901C146.701 48.8893 147.161 49.9337 147.365 51.0408C147.569 52.1479 147.513 53.2874 147.202 54.3691C141.979 72.4205 131.225 120.251 144.118 174.39C153.893 215.433 149.194 232.175 143.531 238.992C139.796 243.488 135.68 243.716 134.888 243.716ZM15.0412 46.3335C14.0895 46.3347 13.1515 46.5603 12.3033 46.9919C11.4551 47.4236 10.7207 48.049 10.1597 48.8176C5.20235 55.6346 -5.07297 78.3211 6.55101 141.593C16.0249 193.162 11.4301 220.431 5.90722 234.226C5.535 235.136 5.39529 236.124 5.50069 237.102C5.60609 238.08 5.95329 239.016 6.51096 239.826C7.06392 240.643 7.80912 241.313 8.6812 241.775C9.55327 242.238 10.5256 242.479 11.5128 242.479H134.789C134.984 242.488 138.957 242.598 142.619 238.156C148.075 231.537 152.555 215.15 142.916 174.676C129.955 120.252 140.765 72.1714 146.014 54.0259C146.273 53.1281 146.319 52.1826 146.149 51.2639C145.98 50.3452 145.599 49.4786 145.036 48.7325C144.474 47.9864 143.746 47.3812 142.909 46.9649C142.073 46.5485 141.151 46.3324 140.216 46.3335H15.0412Z" fill="#3F3D56"/>
<path d="M118.925 100.698H20.6763C19.3652 100.698 18.1078 100.178 17.1808 99.2507C16.2537 98.3238 15.7329 97.0667 15.7329 95.756C15.7329 94.4452 16.2537 93.1881 17.1808 92.2613C18.1078 91.3344 19.3652 90.8137 20.6763 90.8137H118.925C120.236 90.8137 121.494 91.3344 122.421 92.2613C123.348 93.1881 123.869 94.4452 123.869 95.756C123.869 97.0667 123.348 98.3238 122.421 99.2507C121.494 100.178 120.236 100.698 118.925 100.698Z" fill="#FB9685"/>
<path d="M118.925 121.703H20.6763C19.3652 121.703 18.1078 121.182 17.1808 120.255C16.2537 119.328 15.7329 118.071 15.7329 116.761C15.7329 115.45 16.2537 114.193 17.1808 113.266C18.1078 112.339 19.3652 111.818 20.6763 111.818H118.925C120.236 111.818 121.494 112.339 122.421 113.266C123.348 114.193 123.869 115.45 123.869 116.761C123.869 118.071 123.348 119.328 122.421 120.255C121.494 121.182 120.236 121.703 118.925 121.703Z" fill="#CCCCCC"/>
<path d="M118.925 142.707H20.6763C19.3652 142.707 18.1078 142.187 17.1808 141.26C16.2537 140.333 15.7329 139.076 15.7329 137.765C15.7329 136.454 16.2537 135.197 17.1808 134.27C18.1078 133.343 19.3652 132.823 20.6763 132.823H118.925C120.236 132.823 121.494 133.343 122.421 134.27C123.348 135.197 123.869 136.454 123.869 137.765C123.869 139.076 123.348 140.333 122.421 141.26C121.494 142.187 120.236 142.707 118.925 142.707Z" fill="#CCCCCC"/>
<path d="M126.34 163.712H28.0913C26.7802 163.712 25.5229 163.191 24.5958 162.264C23.6688 161.337 23.1479 160.08 23.1479 158.77C23.1479 157.459 23.6688 156.202 24.5958 155.275C25.5229 154.348 26.7802 153.827 28.0913 153.827H126.34C127.651 153.827 128.909 154.348 129.836 155.275C130.763 156.202 131.284 157.459 131.284 158.77C131.284 160.08 130.763 161.337 129.836 162.264C128.909 163.191 127.651 163.712 126.34 163.712Z" fill="#CCCCCC"/>
<path d="M126.34 184.717H28.0913C26.7802 184.717 25.5229 184.196 24.5958 183.269C23.6688 182.342 23.1479 181.085 23.1479 179.774C23.1479 178.464 23.6688 177.206 24.5958 176.28C25.5229 175.353 26.7802 174.832 28.0913 174.832H126.34C127.651 174.832 128.909 175.353 129.836 176.28C130.763 177.206 131.284 178.464 131.284 179.774C131.284 181.085 130.763 182.342 129.836 183.269C128.909 184.196 127.651 184.717 126.34 184.717Z" fill="#CCCCCC"/>
<path d="M67.0202 79.6938H20.6763C19.3652 79.6938 18.1078 79.1731 17.1808 78.2463C16.2537 77.3194 15.7329 76.0623 15.7329 74.7516C15.7329 73.4408 16.2537 72.1837 17.1808 71.2569C18.1078 70.33 19.3652 69.8093 20.6763 69.8093H67.0202C68.3312 69.8093 69.5886 70.33 70.5157 71.2569C71.4427 72.1837 71.9635 73.4408 71.9635 74.7516C71.9635 76.0623 71.4427 77.3194 70.5157 78.2463C69.5886 79.1731 68.3312 79.6938 67.0202 79.6938Z" fill="#FB9685"/>
<path d="M61.0357 218.584C62.0331 214.362 66.7193 212.978 70.5506 213.132C72.9713 213.296 75.3724 213.676 77.7252 214.267C80.1871 214.818 82.625 215.47 85.0506 216.162C89.4987 217.43 93.9009 218.964 98.4222 219.955C102.186 220.781 106.277 221.265 110.03 220.125C113.639 219.03 116.7 216.341 117.682 212.623C118.607 209.119 117.337 205.288 113.941 203.687C110.844 202.226 106.932 202.969 105.397 206.271C103.666 209.994 105.395 214.055 108.136 216.749C109.693 218.211 111.399 219.507 113.226 220.614C115.08 221.878 117.144 222.802 119.321 223.344C122.896 224.107 127.154 222.982 128.997 219.568C129.407 218.795 129.654 217.946 129.722 217.074C129.831 215.887 127.976 215.894 127.868 217.074C127.555 220.474 123.573 222.066 120.595 221.693C118.584 221.36 116.665 220.615 114.956 219.505C113.307 218.544 111.744 217.442 110.286 216.21C107.76 214.025 105.392 210.429 107.088 207.018C108.47 204.241 112.071 204.269 114.261 206.06C116.913 208.229 116.44 212.165 114.691 214.741C112.754 217.593 109.243 218.788 105.933 218.917C102.336 219.057 98.7688 218.232 95.3312 217.256C91.0597 216.043 86.8309 214.686 82.5389 213.544C80.1023 212.896 77.6469 212.311 75.1664 211.856C72.8208 211.339 70.4117 211.173 68.0173 211.361C64.1492 211.808 60.2007 214.059 59.2482 218.092C58.9742 219.251 60.7612 219.746 61.0357 218.584L61.0357 218.584Z" fill="#3F3D56"/>
<path d="M250.428 323.371C250.535 335.536 251.426 347.681 253.096 359.731C253.155 360.154 253.218 360.577 253.277 361L367.223 360.364C367.557 359.943 367.887 359.518 368.206 359.088C369.269 357.663 370.266 356.198 371.182 354.683C375.581 347.383 377.595 338.835 375.577 332.938L375.541 332.846C375.105 331.555 374.419 330.362 373.521 329.337C368.919 324.158 359.615 325.022 351.172 329.202C358.745 320.914 364.775 310.456 365.233 301.122C365.682 292.017 360.92 285.512 355.755 279.985C355.586 279.802 355.416 279.624 355.247 279.447C355.165 279.355 355.078 279.269 354.996 279.178C350.966 274.965 346.268 270.813 339.468 271.315C332.01 271.867 323.741 278.113 317.943 285.39C312.146 292.663 308.293 300.924 304.388 308.987C300.478 317.045 296.247 325.309 289.973 332.197C298.471 321.45 305.323 309.222 307.854 297.33C310.385 285.438 308.158 274.016 300.584 268.415C298.284 266.767 295.624 265.694 292.824 265.285C292.497 265.23 292.166 265.186 291.828 265.147C284.817 264.35 276.445 266.774 269.323 272.569C261.479 278.95 256.041 288.41 253.335 297.389C250.629 306.369 250.341 315.014 250.428 323.371Z" fill="#F2F2F2"/>
<path d="M324.978 360.599L327.157 360.587C327.849 360.155 328.544 359.728 329.242 359.305C329.674 359.032 330.112 358.77 330.549 358.502C337.777 354.089 345.049 349.856 352.367 345.803C359.678 341.747 367.026 337.877 374.41 334.195C374.606 334.109 374.766 333.958 374.862 333.768C374.958 333.577 374.984 333.359 374.935 333.151C374.927 333.124 374.915 333.098 374.899 333.074C374.796 332.881 374.566 332.801 374.23 332.966C373.324 333.42 372.413 333.874 371.507 334.338C364.103 338.084 356.73 342.016 349.388 346.136C342.052 350.254 334.758 354.553 327.506 359.034C327.353 359.127 327.2 359.225 327.048 359.317C326.356 359.745 325.67 360.172 324.978 360.599Z" fill="white"/>
<path d="M296.884 360.756L298.232 360.749C298.536 360.324 298.834 359.898 299.138 359.473C306.278 349.464 313.416 339.454 320.553 329.444C332.24 313.057 343.923 296.669 355.604 280.282C355.673 280.193 355.724 280.093 355.755 279.985C355.855 279.622 355.588 279.409 355.247 279.447C355.103 279.467 354.965 279.519 354.842 279.597C354.719 279.675 354.615 279.778 354.535 279.9C347.983 289.09 341.432 298.277 334.883 307.46C323.256 323.765 311.632 340.069 300.009 356.371C299.269 357.406 298.53 358.446 297.791 359.481C297.487 359.906 297.183 360.331 296.884 360.756Z" fill="white"/>
<path d="M266.868 352.934C266.937 355.204 267.087 357.438 267.284 359.651C267.322 360.075 267.36 360.498 267.398 360.921L268.812 360.913C268.768 360.49 268.725 360.067 268.687 359.644C268.388 356.446 268.176 353.213 268.148 349.891C268.11 340.682 269.008 331.494 270.827 322.467C272.76 312.747 275.536 303.213 279.124 293.975C282.889 284.231 287.429 274.805 292.7 265.786C292.799 265.639 292.843 265.461 292.824 265.285C292.766 264.882 292.23 264.763 291.829 265.148C291.749 265.223 291.681 265.309 291.626 265.404C290.974 266.525 290.334 267.649 289.705 268.777C284.629 277.846 280.284 287.306 276.712 297.065C273.309 306.334 270.721 315.882 268.976 325.6C267.342 334.615 266.636 343.775 266.868 352.934Z" fill="white"/>
<path d="M129.148 219.023C128.914 218.828 128.742 218.568 128.656 218.276C128.569 217.984 128.571 217.672 128.661 217.381C128.751 217.09 128.925 216.831 129.161 216.639C129.398 216.446 129.686 216.328 129.99 216.299C133.36 215.974 136.761 216.322 139.996 217.325L172.94 227.497C173.367 227.628 173.763 227.843 174.106 228.128C174.45 228.412 174.734 228.762 174.942 229.157C175.151 229.551 175.28 229.983 175.321 230.427C175.363 230.871 175.316 231.32 175.184 231.746C175.053 232.172 174.838 232.568 174.553 232.912C174.269 233.255 173.919 233.539 173.524 233.748C173.13 233.956 172.698 234.085 172.253 234.126C171.809 234.168 171.361 234.121 170.934 233.99L137.99 223.818C134.754 222.822 131.748 221.192 129.148 219.023Z" fill="#3F3D56"/>
<path d="M264.192 261.279C263.297 260.904 262.495 260.337 261.843 259.619C261.191 258.9 260.705 258.047 260.418 257.121C260.131 256.194 260.051 255.215 260.183 254.254C260.316 253.293 260.657 252.372 261.184 251.557L255.537 222.033L269.929 220.911L270.798 249.79C272.109 250.766 273.016 252.188 273.348 253.787C273.68 255.387 273.414 257.052 272.599 258.468C271.785 259.885 270.479 260.953 268.93 261.471C267.38 261.989 265.695 261.921 264.192 261.279Z" fill="#FFB8B8"/>
<path d="M254.649 246.042L239.99 177.788C239.388 174.984 239.925 172.057 241.482 169.649C243.039 167.241 245.489 165.55 248.293 164.948C251.097 164.346 254.025 164.883 256.433 166.439C258.842 167.996 260.533 170.446 261.135 173.249L275.794 241.502C275.948 242.223 275.81 242.976 275.409 243.595C275.009 244.214 274.38 244.649 273.659 244.804L257.951 248.176C257.594 248.253 257.226 248.259 256.866 248.193C256.507 248.127 256.164 247.991 255.858 247.793C255.551 247.595 255.286 247.338 255.079 247.038C254.872 246.737 254.725 246.399 254.649 246.042Z" fill="#FB9685"/>
<path d="M230.589 353.41H223.014L219.409 324.197L230.59 324.197L230.589 353.41Z" fill="#FFB8B8"/>
<path d="M217.602 351.246H232.212V360.443H208.403C208.403 359.235 208.641 358.039 209.104 356.923C209.566 355.807 210.243 354.794 211.098 353.94C211.952 353.086 212.966 352.408 214.082 351.946C215.198 351.484 216.394 351.246 217.602 351.246Z" fill="#2F2E41"/>
<path d="M255.924 352.792H248.348L244.744 323.579L255.925 323.579L255.924 352.792Z" fill="#FFB8B8"/>
<path d="M242.937 350.628H257.547V359.825H233.738C233.738 358.617 233.976 357.421 234.439 356.305C234.901 355.189 235.578 354.176 236.433 353.322C237.287 352.468 238.301 351.79 239.417 351.328C240.533 350.866 241.729 350.628 242.937 350.628Z" fill="#2F2E41"/>
<path d="M221.512 347.961C221.228 347.728 220.994 347.44 220.822 347.115C220.651 346.791 220.546 346.435 220.514 346.069L211.707 249.214C211.673 248.838 211.715 248.459 211.833 248.1C211.95 247.741 212.139 247.41 212.388 247.126C212.637 246.843 212.942 246.613 213.283 246.451C213.624 246.289 213.994 246.198 214.372 246.184L258.54 244.528C258.923 244.514 259.304 244.578 259.66 244.718C260.016 244.858 260.339 245.069 260.61 245.34C260.881 245.61 261.092 245.933 261.232 246.289C261.372 246.645 261.437 247.026 261.424 247.408L257.893 343.891C257.867 344.566 257.596 345.209 257.131 345.7C256.666 346.19 256.039 346.495 255.366 346.558L246.46 347.367C246.091 347.401 245.718 347.36 245.365 347.248C245.012 347.135 244.684 346.953 244.402 346.713C244.12 346.472 243.889 346.177 243.723 345.846C243.557 345.514 243.458 345.153 243.434 344.783L239.347 283.489C239.344 283.371 239.317 283.255 239.269 283.148C239.221 283.04 239.152 282.943 239.066 282.863C238.98 282.782 238.878 282.72 238.768 282.679C238.657 282.638 238.54 282.62 238.422 282.624H238.418C238.3 282.62 238.182 282.639 238.072 282.68C237.961 282.722 237.86 282.785 237.774 282.866C237.688 282.948 237.619 283.045 237.572 283.153C237.524 283.261 237.498 283.378 237.496 283.496L233.839 345.204C233.802 345.864 233.53 346.49 233.071 346.967C232.613 347.445 231.999 347.742 231.34 347.805L223.56 348.583C223.194 348.621 222.825 348.585 222.473 348.478C222.122 348.371 221.795 348.195 221.512 347.961H221.512Z" fill="#2F2E41"/>
<path d="M238.502 150.444C246.884 150.444 253.679 143.651 253.679 135.271C253.679 126.891 246.884 120.098 238.502 120.098C230.121 120.098 223.326 126.891 223.326 135.271C223.326 143.651 230.121 150.444 238.502 150.444Z" fill="#FFB8B8"/>
<path d="M209.276 249.869C209.006 249.562 208.807 249.199 208.695 248.806C208.582 248.413 208.559 248 208.625 247.597C211.427 230.57 209.848 205.542 208.03 187.544C207.555 182.77 208.347 177.955 210.326 173.584C212.305 169.213 215.401 165.441 219.301 162.646L227.227 155.854C227.754 155.408 228.426 155.17 229.117 155.186L248.807 155.748C249.517 155.768 250.193 156.059 250.694 156.562L253.737 163.299L253.768 163.322C257.394 165.986 260.303 169.507 262.235 173.571C264.166 177.634 265.061 182.113 264.838 186.606L261.94 246.491C261.903 247.188 261.607 247.845 261.11 248.334C260.613 248.824 259.951 249.109 259.254 249.136L211.459 250.815C211.428 250.815 211.398 250.816 211.367 250.816C210.971 250.817 210.58 250.732 210.219 250.569C209.858 250.406 209.537 250.167 209.276 249.869Z" fill="#FB9685"/>
<path d="M151.948 224.88C151.924 223.91 152.114 222.946 152.503 222.057C152.891 221.168 153.47 220.375 154.199 219.734C154.927 219.094 155.788 218.62 156.719 218.347C157.65 218.075 158.63 218.01 159.589 218.157L184.223 200.921L191.137 213.591L165.137 226.203C164.783 227.798 163.857 229.208 162.533 230.165C161.209 231.123 159.58 231.561 157.955 231.398C156.329 231.235 154.82 230.481 153.713 229.28C152.606 228.078 151.978 226.513 151.948 224.879L151.948 224.88Z" fill="#FFB8B8"/>
<path d="M172.678 227.876C172.317 227.821 171.97 227.696 171.658 227.506C171.346 227.317 171.074 227.068 170.858 226.773L161.352 213.824C160.917 213.229 160.735 212.486 160.847 211.758C160.958 211.029 161.355 210.374 161.948 209.938L218.237 168.631C220.55 166.934 223.441 166.225 226.276 166.66C227.679 166.875 229.027 167.365 230.241 168.101C231.456 168.837 232.513 169.805 233.354 170.949C234.194 172.094 234.8 173.393 235.139 174.771C235.477 176.15 235.54 177.582 235.325 178.986C235.109 180.389 234.62 181.736 233.884 182.95C233.148 184.164 232.179 185.222 231.035 186.062L174.745 227.369C174.271 227.719 173.696 227.908 173.106 227.908C172.963 227.908 172.82 227.897 172.678 227.876Z" fill="#FB9685"/>
<path d="M239.279 148.778C241.292 146.311 241.072 142.553 239.456 139.809C237.841 137.065 235.099 135.176 232.277 133.7C229.456 132.224 226.458 131.063 223.803 129.306C221.147 127.549 221.263 120.109 220.556 117.004L222.242 117.566C221.594 116.737 221.386 114.288 220.738 113.459C222.644 113.647 224.109 115.456 226.014 115.644L224.915 112.693C231.449 112.29 235.511 116.83 242.046 116.427C245.283 116.227 248.799 116.101 251.46 117.955C253.773 119.566 254.944 122.354 255.712 125.065C257.361 130.886 257.618 137.407 254.769 142.746C251.92 148.084 245.354 151.681 239.617 149.754L239.279 148.778Z" fill="#2F2E41"/>
<path d="M155.955 360.784H391.382C391.546 360.784 391.703 360.719 391.819 360.603C391.935 360.487 392 360.33 392 360.166C392 360.002 391.935 359.845 391.819 359.729C391.703 359.613 391.546 359.548 391.382 359.548H155.955C155.791 359.548 155.634 359.613 155.518 359.729C155.403 359.845 155.337 360.002 155.337 360.166C155.337 360.33 155.403 360.487 155.518 360.603C155.634 360.719 155.791 360.784 155.955 360.784Z" fill="#3F3D56"/>
</g>
<defs>
<clipPath id="clip0">
<rect width="392" height="361" fill="white"/>
</clipPath>
</defs>
</svg>
