<svg width="14" height="14" viewBox="0 0 14 14" fill="none" xmlns="http://www.w3.org/2000/svg">
<path d="M2.91667 1.75C2.27325 1.75 1.75 2.27325 1.75 2.91667V11.0833C1.75 11.7267 2.27325 12.25 2.91667 12.25H6.77897H8.4082H11.0833C11.7267 12.25 12.25 11.7267 12.25 11.0833V2.91667C12.25 2.27325 11.7267 1.75 11.0833 1.75H2.91667ZM2.91667 2.91667H11.0833L11.0845 11.0833H8.4082V8.77051H9.78792L9.993 7.18115H8.41732V6.16829C8.41732 5.70863 8.54542 5.39811 9.20459 5.39811H10.0374V3.97965C9.63202 3.93824 9.22497 3.9181 8.81722 3.91927C7.60739 3.91927 6.77897 4.65768 6.77897 6.01335V7.18343H5.41178V8.77279H6.77897V11.0833H2.91667V2.91667Z" fill="#3513F2"/>
</svg>
