<svg width="14" height="15" viewBox="0 0 14 15" fill="none" xmlns="http://www.w3.org/2000/svg">
<g clip-path="url(#clip0)">
<path d="M13.9937 7.04531C13.9302 7.71562 13.368 8.20312 12.7402 8.20312H11.594C11.3271 8.20312 11.1171 8.45625 11.163 8.75156C11.198 8.98125 11.3993 9.14062 11.618 9.14062H12.3596C12.9349 9.14062 13.3987 9.675 13.3396 10.3031C13.2871 10.8516 12.8277 11.25 12.3137 11.25H11.1565C10.8896 11.25 10.6796 11.5031 10.7255 11.7984C10.7605 12.0281 10.9618 12.1875 11.1805 12.1875H11.9221C12.1933 12.1875 12.4405 12.3047 12.6177 12.4969C12.7971 12.6867 12.9065 12.9516 12.9065 13.2422C12.9065 13.8258 12.4668 14.2969 11.9221 14.2969H2.29709C1.96459 14.2969 1.66272 14.1516 1.44616 13.9195C1.22959 13.6875 1.09397 13.3641 1.09397 13.0078C1.09397 12.2953 1.63209 11.7188 2.29709 11.7188H3.06272C3.32959 11.7188 3.53959 11.4656 3.49365 11.1703C3.45865 10.9406 3.25741 10.7812 3.03866 10.7812H1.20334C0.62803 10.7812 0.16428 10.2469 0.223343 9.61875C0.275843 9.07031 0.735218 8.67188 1.24928 8.67188H2.84397C3.21803 8.67188 3.5199 8.33672 3.50022 7.93125C3.48053 7.55156 3.16115 7.26562 2.80678 7.26562H0.984593C0.40928 7.26562 -0.0544698 6.73125 0.00459267 6.10313C0.0570927 5.55469 0.518655 5.15625 1.03053 5.15625H3.17209C3.44334 5.15625 3.69053 5.03906 3.86772 4.84688C4.04709 4.65703 4.15647 4.39219 4.15647 4.10156C4.15647 3.51797 3.71678 3.04688 3.17209 3.04688H1.85959C1.52709 3.04688 1.22522 2.90156 1.00866 2.66953C0.792093 2.4375 0.656468 2.11406 0.656468 1.75781C0.656468 1.04531 1.19459 0.46875 1.85959 0.46875H12.3596C13.0618 0.46875 13.6283 1.12266 13.5562 1.88906C13.4927 2.55938 13.1493 3.04688 12.5215 3.04688H12.1408C11.4758 3.04688 10.9377 3.62344 10.9377 4.33594C10.9377 4.69219 11.0733 5.01562 11.2899 5.24766C11.5065 5.47969 11.8083 5.625 12.1408 5.625H12.7971C13.4993 5.625 14.0658 6.27891 13.9937 7.04531Z" fill="url(#paint0_radial)"/>
<path d="M10.3819 3.63281L10.0822 3.97969C9.78908 4.31719 9.31658 4.37109 8.95564 4.12031C8.36283 3.71016 7.54908 3.38672 6.54939 3.56484C5.46877 3.75938 4.54346 4.46719 4.00314 5.43281L2.24658 4.00781C3.27908 2.30156 5.07502 1.17188 7.10939 1.17188C8.20315 1.17188 9.28377 1.5375 10.231 2.21719C10.6772 2.53828 10.7472 3.21328 10.3819 3.63281Z" fill="url(#paint1_linear)"/>
<path d="M3.50206 7.24453C3.48237 7.82344 3.58299 8.37656 3.77987 8.87578L1.98393 10.2937C1.68862 9.70547 1.48081 9.05625 1.38237 8.36719C1.1505 6.75469 1.5005 5.23125 2.24643 4.00781L4.00299 5.43281C3.70331 5.96953 3.52174 6.58828 3.50206 7.24453Z" fill="url(#paint2_linear)"/>
<path d="M11.0358 12.0187C10.0405 12.9726 8.71482 13.5585 7.23826 13.5914C5.01139 13.6406 2.98795 12.3117 1.98389 10.2937L3.77982 8.87573C4.3267 10.2679 5.61514 11.25 7.1092 11.25C7.97107 11.25 8.7542 10.95 9.36889 10.4437L11.0358 12.0187Z" fill="url(#paint3_linear)"/>
<path d="M12.9062 7.49297C12.9084 9.30469 12.1931 10.9102 11.0359 12.0187L9.36906 10.4437C9.82844 10.0664 10.1937 9.57422 10.4278 9.00234C10.4912 8.84766 10.3841 8.67187 10.2266 8.67187H8.09375C7.61031 8.67187 7.21875 8.25234 7.21875 7.73437V7.26562C7.21875 6.74766 7.61031 6.32813 8.09375 6.32813H11.8125C12.4141 6.32812 12.9062 6.84844 12.9062 7.49297Z" fill="url(#paint4_linear)"/>
</g>
<defs>
<radialGradient id="paint0_radial" cx="0" cy="0" r="1" gradientUnits="userSpaceOnUse" gradientTransform="translate(6.99978 7.38281) scale(6.73225 7.21312)">
<stop stop-color="#F4E9C3"/>
<stop offset="0.219" stop-color="#F8EECD"/>
<stop offset="0.644" stop-color="#FDF4DC"/>
<stop offset="1" stop-color="#FFF6E1"/>
</radialGradient>
<linearGradient id="paint1_linear" x1="6.43149" y1="14.5163" x2="6.43149" y2="-9.54703" gradientUnits="userSpaceOnUse">
<stop stop-color="#FF5840"/>
<stop offset="0.007" stop-color="#FF5840"/>
<stop offset="0.989" stop-color="#FA528C"/>
<stop offset="1" stop-color="#FA528C"/>
</linearGradient>
<linearGradient id="paint2_linear" x1="2.65724" y1="15.2644" x2="2.65724" y2="4.26281" gradientUnits="userSpaceOnUse">
<stop stop-color="#FEAA53"/>
<stop offset="0.612" stop-color="#FFCD49"/>
<stop offset="1" stop-color="#FFDE44"/>
</linearGradient>
<linearGradient id="paint3_linear" x1="6.50982" y1="7.93378" x2="6.50982" y2="17.095" gradientUnits="userSpaceOnUse">
<stop stop-color="#42D778"/>
<stop offset="0.428" stop-color="#3DCA76"/>
<stop offset="1" stop-color="#34B171"/>
</linearGradient>
<linearGradient id="paint4_linear" x1="10.0625" y1="14.6161" x2="10.0625" y2="7.12664" gradientUnits="userSpaceOnUse">
<stop stop-color="#155CDE"/>
<stop offset="0.278" stop-color="#1F7FE5"/>
<stop offset="0.569" stop-color="#279CEB"/>
<stop offset="0.82" stop-color="#2CAFEF"/>
<stop offset="1" stop-color="#2EB5F0"/>
</linearGradient>
<clipPath id="clip0">
<rect width="14" height="15" fill="white"/>
</clipPath>
</defs>
</svg>
