<svg width="31" height="32" viewBox="0 0 31 32" fill="none" xmlns="http://www.w3.org/2000/svg">
<path d="M15.2792 15.4145C17.3307 15.4145 19.1069 14.655 20.5586 13.1565C22.0098 11.6582 22.7458 9.82493 22.7458 7.70702C22.7458 5.58983 22.01 3.75634 20.5583 2.25756C19.1066 0.75952 17.3304 0 15.2792 0C13.2274 0 11.4515 0.75952 9.99999 2.25781C8.54852 3.7561 7.8125 5.58959 7.8125 7.70702C7.8125 9.82493 8.54852 11.6584 9.99999 13.1567C11.4519 14.6548 13.2281 15.4145 15.2792 15.4145ZM11.2847 3.58373C12.3985 2.43408 13.7049 1.87524 15.2792 1.87524C16.8531 1.87524 18.1599 2.43408 19.2738 3.58373C20.3876 4.73363 20.9292 6.08251 20.9292 7.70702C20.9292 9.33201 20.3876 10.6806 19.2738 11.8305C18.1599 12.9804 16.8531 13.5393 15.2792 13.5393C13.7054 13.5393 12.3989 12.9802 11.2847 11.8305C10.1708 10.6809 9.62914 9.33201 9.62914 7.70702C9.62914 6.08251 10.1708 4.73363 11.2847 3.58373Z" fill="white"/>
<path d="M28.3437 24.6064C28.3019 23.9829 28.2172 23.3027 28.0926 22.5845C27.9667 21.8608 27.8047 21.1767 27.6108 20.5515C27.4102 19.9053 27.138 19.2671 26.801 18.6555C26.4517 18.0207 26.0411 17.468 25.5803 17.0132C25.0986 16.5374 24.5087 16.1548 23.8266 15.8757C23.1469 15.5981 22.3936 15.4575 21.5878 15.4575C21.2713 15.4575 20.9653 15.5916 20.3743 15.9888C20.0105 16.2336 19.585 16.5168 19.1101 16.8301C18.704 17.0972 18.1539 17.3474 17.4744 17.574C16.8115 17.7954 16.1383 17.9077 15.4737 17.9077C14.8096 17.9077 14.1365 17.7954 13.4731 17.574C12.7943 17.3477 12.2439 17.0974 11.8386 16.8303C11.3681 16.52 10.9424 16.2368 10.5732 15.9885C9.98267 15.5913 9.67662 15.4573 9.36017 15.4573C8.55414 15.4573 7.80109 15.5981 7.12159 15.876C6.43996 16.1545 5.84987 16.5371 5.36762 17.0134C4.9069 17.4685 4.49632 18.021 4.14722 18.6555C3.81067 19.2671 3.53821 19.905 3.33765 20.5517C3.14394 21.177 2.98193 21.8608 2.85611 22.5845C2.73123 23.3017 2.6468 23.9822 2.60493 24.6072C2.56378 25.2182 2.54297 25.8542 2.54297 26.4968C2.54297 28.1672 3.05738 29.5195 4.07178 30.5168C5.07364 31.5009 6.39905 32 8.01134 32H22.938C24.5499 32 25.8753 31.5009 26.8774 30.5168C27.892 29.5202 28.4064 28.1675 28.4064 26.4966C28.4062 25.8518 28.3851 25.2158 28.3437 24.6064ZM25.6248 29.1582C24.9628 29.8086 24.0839 30.1247 22.9378 30.1247H8.01134C6.86497 30.1247 5.9861 29.8086 5.32434 29.1584C4.67512 28.5205 4.35961 27.6496 4.35961 26.4968C4.35961 25.8972 4.37877 25.3052 4.41708 24.7368C4.45445 24.1792 4.53085 23.5666 4.64413 22.9158C4.756 22.2729 4.89838 21.6697 5.06773 21.1235C5.23021 20.5998 5.45182 20.0813 5.72665 19.5818C5.98894 19.1057 6.29073 18.6973 6.62373 18.3682C6.93522 18.0603 7.32783 17.8083 7.79044 17.6194C8.21829 17.4446 8.69912 17.3489 9.2211 17.3345C9.28472 17.3694 9.39801 17.436 9.58154 17.5596C9.95499 17.8108 10.3854 18.0974 10.8613 18.4111C11.3977 18.7642 12.0888 19.083 12.9145 19.3581C13.7586 19.6399 14.6195 19.7829 15.474 19.7829C16.3285 19.7829 17.1896 19.6399 18.0333 19.3584C18.8596 19.0828 19.5505 18.7642 20.0876 18.4106C20.5746 18.0893 20.993 17.811 21.3664 17.5596C21.55 17.4363 21.6632 17.3694 21.7269 17.3345C22.2491 17.3489 22.7299 17.4446 23.158 17.6194C23.6204 17.8083 24.013 18.0605 24.3245 18.3682C24.6575 18.697 24.9593 19.1055 25.2216 19.582C25.4966 20.0813 25.7185 20.6001 25.8807 21.1233C26.0503 21.6702 26.1929 22.2732 26.3045 22.9155C26.4176 23.5676 26.4942 24.1804 26.5316 24.737V24.7375C26.5701 25.3037 26.5895 25.8955 26.5898 26.4968C26.5895 27.6499 26.274 28.5205 25.6248 29.1582Z" fill="white"/>
</svg>
