<svg width="50" height="23" viewBox="0 0 50 23" fill="none" xmlns="http://www.w3.org/2000/svg">
<path d="M7.38636 0.949707C3.32734 0.949707 0 3.09695 0 5.71637V18.183C0 20.8025 3.32734 22.9497 7.38636 22.9497H42.6136C46.6727 22.9497 50 20.8025 50 18.183V5.71637C50 3.09695 46.6727 0.949707 42.6136 0.949707H7.38636ZM7.38636 3.14971H42.6136C44.8296 3.14971 46.5909 4.28633 46.5909 5.71637V18.183C46.5909 19.6131 44.8296 20.7497 42.6136 20.7497H7.38636C5.17038 20.7497 3.40909 19.6131 3.40909 18.183V5.71637C3.40909 4.28633 5.17038 3.14971 7.38636 3.14971ZM29.7208 7.91637C26.4026 7.91637 24.6893 8.97493 24.6893 10.3155C24.6893 12.7384 29.0638 12.4082 29.0638 13.6541C29.0638 13.8653 28.8069 14.3588 26.9864 14.3588C25.1614 14.3588 23.9591 13.9119 23.9591 13.9119L23.4131 15.5376C23.4131 15.5376 24.5819 15.983 26.8422 15.983C29.1024 15.983 32.2377 14.8538 32.2377 13.2302C32.2365 11.2788 27.8609 11.1379 27.8609 10.2682C27.8609 9.8238 28.4089 9.49189 29.9782 9.49189C30.9976 9.49189 32.1644 9.98747 32.1644 9.98747L32.6749 8.29307C32.6749 8.29307 31.181 7.91637 29.7208 7.91637ZM18.9475 8.07106L15.5717 8.07249L12.6842 13.5338C12.6842 13.5338 12.5183 13.0687 12.449 12.779C10.8046 10.4015 8.13876 9.52913 8.13876 9.52913L10.6712 15.741H14.1468L18.9475 8.07106ZM20.1949 8.07106L18.3239 15.7424H21.4777L23.3865 8.07106H20.1949ZM37.3291 8.07249L32.1511 15.7424H35.2828L35.9308 14.6481H39.8793L40.2188 15.7424H43.0886L40.6472 8.07249H37.3291ZM4.63645 8.08825C4.63645 8.08825 10.857 9.31394 12.3047 12.3235L11.2438 8.84307C11.2438 8.84307 10.7636 8.08825 9.51705 8.08825H4.63645ZM38.5254 10.2825L39.4243 13.1815H36.8075L38.5254 10.2825Z" fill="white"/>
</svg>
