<svg width="305" height="356" viewBox="0 0 305 356" fill="none" xmlns="http://www.w3.org/2000/svg">
<path d="M294.76 158.672C294.221 157.972 293.669 157.286 293.092 156.618C288.458 151.182 282.706 146.819 276.234 143.831C269.761 140.842 262.72 139.298 255.596 139.306C254.762 139.306 253.934 139.306 253.119 139.369L248.536 139.81C239.954 140.612 231.251 141.29 222.426 141.844L216.953 110.477L212.563 85.4532L208.588 62.7733L204.199 37.756L199.684 12.0142L199.208 9.28005C198.402 6.31742 196.548 3.75235 193.993 2.06694C191.437 0.381517 188.357 -0.308195 185.332 0.127432C182.306 0.563058 179.543 2.09402 177.561 4.43259C175.58 6.77116 174.517 9.75629 174.572 12.8269C174.572 12.997 174.572 13.1608 174.572 13.3309L175.161 16.6825L178.861 37.7749L126.128 37.8505L129.846 16.6825L130.436 13.3309C130.436 13.1608 130.436 12.997 130.436 12.8269C130.454 9.7835 129.375 6.83629 127.399 4.52991C125.422 2.22354 122.682 0.713886 119.684 0.279922C116.685 -0.154041 113.632 0.517016 111.088 2.16909C108.544 3.82117 106.681 6.34259 105.844 9.26745L105.367 12.0016L100.828 37.8883L96.4385 62.9182L92.4569 85.5981L88.0677 110.628L82.97 139.696C74.6097 138.911 66.3706 138.006 58.2527 136.981C56.6258 136.687 54.985 136.477 53.3368 136.351C52.0535 136.242 50.7493 136.189 49.4242 136.193C42.2516 136.185 35.1636 137.75 28.6549 140.778C22.1463 143.806 16.3737 148.225 11.74 153.726C11.3638 154.161 11.0001 154.608 10.6427 155.062C5.66653 161.401 2.2997 168.86 0.832645 176.798C-0.634411 184.735 -0.157648 192.912 2.22181 200.623L3.79564 204.977L46.5775 323.057L49.443 330.976L50.998 335.267C54.2466 341.108 58.8773 346.056 64.481 349.672C70.0846 353.288 76.4885 355.461 83.1268 356H222.213C229.652 355.394 236.779 352.737 242.811 348.322C248.843 343.907 253.545 337.905 256.399 330.976C256.543 330.636 256.675 330.296 256.806 329.956L256.838 329.88L257.251 328.727L299.889 210.974L303.607 200.718C305.35 193.489 305.459 185.96 303.924 178.684C302.39 171.407 299.252 164.569 294.741 158.672H294.76ZM121.739 62.9119L183.263 62.8237L187.238 85.5036L117.764 85.6044L121.739 62.9119ZM113.368 110.603L191.633 110.477L197.346 143.041C187.104 143.394 176.741 143.571 166.258 143.571C146.381 143.571 126.887 142.941 107.944 141.681L113.368 110.603ZM274.281 208.555C273.851 210.061 273.317 211.534 272.682 212.965L263.622 237.963L246.423 285.472L237.901 309.002L236.647 312.48C236.363 313.437 236.024 314.378 235.632 315.296C233.945 319.162 231.396 322.586 228.182 325.305C224.968 328.024 221.176 329.965 217.097 330.976H88.2433C81.2974 329.239 75.2975 324.853 71.5143 318.748C69.618 315.677 68.3735 312.245 67.8587 308.668L59.3312 285.119L41.1161 234.813L31.8048 209.116C31.6418 208.694 31.485 208.265 31.3346 207.856C30.1026 204.238 29.4734 200.44 29.4723 196.617C29.4723 178.088 43.8938 163.044 61.7828 162.823C64.4038 163.134 67.0352 163.43 69.6771 163.712C72.6283 164.027 75.5962 164.329 78.5808 164.619L74.0913 190.222L73.6148 193.007C73.6148 193.259 73.6148 193.523 73.6148 193.788C73.596 196.805 74.6556 199.729 76.6008 202.028C78.5461 204.327 81.2478 205.848 84.2148 206.315C87.1818 206.782 90.2171 206.163 92.7687 204.572C95.3202 202.981 97.2187 200.522 98.1189 197.643L98.702 194.304L103.555 166.622C122.93 167.882 142.845 168.582 163.173 168.582C176.19 168.582 189.035 168.311 201.71 167.769L206.368 194.304L206.958 197.643C207.858 200.522 209.756 202.981 212.308 204.572C214.86 206.163 217.895 206.782 220.862 206.315C223.829 205.848 226.531 204.327 228.476 202.028C230.421 199.729 231.481 196.805 231.462 193.788C231.462 193.523 231.462 193.259 231.431 193.007L230.941 190.197L226.753 166.345C230.461 166.085 234.143 165.799 237.801 165.488C239.161 165.279 240.533 165.159 241.908 165.129H242.936C261.007 165.129 275.655 180.249 275.655 198.922C275.649 202.182 275.186 205.425 274.281 208.555Z" fill="#F2EEEE"/>
</svg>
