<svg width="21" height="22" viewBox="0 0 21 22" fill="none" xmlns="http://www.w3.org/2000/svg">
<path d="M20.76 21.086L18.97 18.105C18.14 16.729 17.71 15.153 17.71 13.549V10.938C17.71 7.641 15.51 4.852 12.5 3.953V2.083C12.5 0.934 11.56 0 10.42 0C9.27004 0 8.32995 0.934 8.32995 2.083V3.953C5.31995 4.852 3.11999 7.641 3.11999 10.938V13.549C3.11999 15.153 2.68998 16.728 1.85998 18.104L0.0699414 21.085C-0.0200586 21.247 -0.0200586 21.447 0.0699414 21.61C0.159941 21.774 0.330015 21.875 0.520015 21.875H20.3101C20.5001 21.875 20.67 21.774 20.76 21.612C20.86 21.449 20.85 21.247 20.76 21.086Z" fill="#6E577D"/>
</svg>
