<svg width="18" height="18" viewBox="0 0 18 18" fill="none" xmlns="http://www.w3.org/2000/svg">
<path d="M2 0C0.897 0 0 0.897 0 2V16C0 17.103 0.897 18 2 18H8.62097H11.414H16C17.103 18 18 17.103 18 16V2C18 0.897 17.103 0 16 0H2ZM2 2H16L16.002 16H11.414V12.035H13.779L14.131 9.311H11.43V7.57401C11.43 6.78601 11.649 6.254 12.779 6.254H14.207V3.82199C13.512 3.75099 12.814 3.71699 12.115 3.71899C10.041 3.71899 8.62097 4.98499 8.62097 7.30899V9.314H6.27698V12.039H8.62097V16H2V2Z" fill="black"/>
</svg>
