<svg width="18" height="22" viewBox="0 0 18 22" fill="none" xmlns="http://www.w3.org/2000/svg">
<path d="M2 0.5C0.897 0.5 0 1.54601 0 2.83301V19.167C0 20.453 0.897 21.5 2 21.5H8.62097H11.414H16C17.103 21.5 18 20.453 18 19.167V2.83301C18 1.54601 17.103 0.5 16 0.5H2ZM2 2.83301H16L16.002 19.167H11.414V14.541H13.779L14.131 11.362H11.43V9.33701C11.43 8.41701 11.649 7.79599 12.779 7.79599H14.207V4.95901C13.512 4.87601 12.814 4.83599 12.115 4.83899C10.041 4.83899 8.62097 6.31501 8.62097 9.02701V11.367H6.27698V14.546H8.62097V19.167H2V2.83301Z" fill="black"/>
</svg>
