<svg width="25" height="23" viewBox="0 0 25 23" fill="none" xmlns="http://www.w3.org/2000/svg">
<path d="M24.989 11.273C24.88 12.345 23.916 13.125 22.84 13.125H20.875C20.417 13.125 20.057 13.53 20.136 14.003C20.196 14.37 20.541 14.625 20.916 14.625H22.187C23.174 14.625 23.969 15.48 23.867 16.485C23.777 17.362 22.99 18 22.109 18H20.125C19.667 18 19.307 18.405 19.386 18.878C19.446 19.245 19.791 19.5 20.166 19.5H21.437C21.902 19.5 22.326 19.688 22.63 19.995C22.937 20.299 23.125 20.722 23.125 21.188C23.125 22.121 22.371 22.875 21.437 22.875H4.93701C4.36701 22.875 3.85001 22.642 3.47901 22.271C3.10701 21.9 2.875 21.382 2.875 20.812C2.875 19.673 3.79701 18.75 4.93701 18.75H6.25C6.707 18.75 7.06702 18.345 6.98902 17.872C6.92902 17.505 6.58399 17.25 6.20899 17.25H3.06201C2.07601 17.25 1.28102 16.395 1.38202 15.39C1.47202 14.513 2.25999 13.875 3.14099 13.875H5.875C6.516 13.875 7.034 13.339 7 12.69C6.966 12.083 6.41898 11.625 5.81098 11.625H2.68701C1.70101 11.625 0.906022 10.77 1.00702 9.76501C1.09702 8.88801 1.88899 8.25 2.76599 8.25H6.43701C6.90201 8.25 7.32601 8.06201 7.63001 7.755C7.93701 7.451 8.125 7.02801 8.125 6.56201C8.125 5.62901 7.37101 4.875 6.43701 4.875H4.18701C3.61701 4.875 3.10001 4.643 2.72901 4.271C2.35701 3.9 2.125 3.38201 2.125 2.81201C2.125 1.67301 3.04701 0.75 4.18701 0.75H22.187C23.391 0.75 24.362 1.79601 24.239 3.02301C24.13 4.09501 23.541 4.875 22.465 4.875H21.812C20.672 4.875 19.75 5.79799 19.75 6.93799C19.75 7.50799 19.982 8.025 20.354 8.396C20.725 8.767 21.242 9 21.812 9H22.937C24.141 9 25.112 10.046 24.989 11.273Z" fill="url(#paint0_radial)"/>
<path d="M18.798 5.81201L18.284 6.367C17.781 6.907 16.971 6.99401 16.353 6.59201C15.336 5.93601 13.941 5.41901 12.228 5.70401C10.375 6.01501 8.78898 7.14799 7.86298 8.69299L4.85101 6.41299C6.62101 3.68299 9.69999 1.875 13.188 1.875C15.063 1.875 16.915 2.46 18.539 3.548C19.304 4.061 19.424 5.14101 18.798 5.81201Z" fill="url(#paint1_linear)"/>
<path d="M7.00402 11.5911C6.97002 12.5181 7.14197 13.4031 7.47997 14.2011L4.40099 16.4701C3.89499 15.5291 3.53899 14.4901 3.36999 13.3881C2.97199 10.8081 3.57201 8.37009 4.85101 6.41309L7.86199 8.69308C7.34899 9.55108 7.03702 10.5411 7.00402 11.5911Z" fill="url(#paint2_linear)"/>
<path d="M19.919 19.2299C18.212 20.7559 15.94 21.6939 13.409 21.7459C9.591 21.8249 6.122 19.6989 4.401 16.4699L7.47998 14.2009C8.41698 16.4289 10.626 17.9999 13.187 17.9999C14.665 17.9999 16.007 17.5199 17.061 16.7099L19.919 19.2299Z" fill="url(#paint3_linear)"/>
<path d="M23.125 11.989C23.129 14.887 21.902 17.456 19.919 19.23L17.061 16.71C17.849 16.106 18.475 15.319 18.876 14.404C18.985 14.156 18.801 13.875 18.531 13.875H14.875C14.046 13.875 13.375 13.204 13.375 12.375V11.625C13.375 10.796 14.046 10.125 14.875 10.125H21.25C22.281 10.125 23.125 10.957 23.125 11.989Z" fill="url(#paint4_linear)"/>
<defs>
<radialGradient id="paint0_radial" cx="0" cy="0" r="1" gradientUnits="userSpaceOnUse" gradientTransform="translate(12.999 11.812) scale(11.541)">
<stop stop-color="#F4E9C3"/>
<stop offset="0.219" stop-color="#F8EECD"/>
<stop offset="0.644" stop-color="#FDF4DC"/>
<stop offset="1" stop-color="#FFF6E1"/>
</radialGradient>
<linearGradient id="paint1_linear" x1="12.025" y1="23.226" x2="12.025" y2="-15.275" gradientUnits="userSpaceOnUse">
<stop stop-color="#FF5840"/>
<stop offset="0.007" stop-color="#FF5840"/>
<stop offset="0.989" stop-color="#FA528C"/>
<stop offset="1" stop-color="#FA528C"/>
</linearGradient>
<linearGradient id="paint2_linear" x1="5.55499" y1="24.4231" x2="5.55499" y2="6.82109" gradientUnits="userSpaceOnUse">
<stop stop-color="#FEAA53"/>
<stop offset="0.612" stop-color="#FFCD49"/>
<stop offset="1" stop-color="#FFDE44"/>
</linearGradient>
<linearGradient id="paint3_linear" x1="12.16" y1="12.6939" x2="12.16" y2="27.352" gradientUnits="userSpaceOnUse">
<stop stop-color="#42D778"/>
<stop offset="0.428" stop-color="#3DCA76"/>
<stop offset="1" stop-color="#34B171"/>
</linearGradient>
<linearGradient id="paint4_linear" x1="18.25" y1="23.386" x2="18.25" y2="11.403" gradientUnits="userSpaceOnUse">
<stop stop-color="#155CDE"/>
<stop offset="0.278" stop-color="#1F7FE5"/>
<stop offset="0.569" stop-color="#279CEB"/>
<stop offset="0.82" stop-color="#2CAFEF"/>
<stop offset="1" stop-color="#2EB5F0"/>
</linearGradient>
</defs>
</svg>
