<svg width="22" height="62" viewBox="0 0 22 62" fill="none" xmlns="http://www.w3.org/2000/svg">
<path d="M21.3646 38.1467C21.3646 45.6528 17.7695 53.459 13.2004 54.1577C16.7819 52.2481 19.3864 45.2 19.3864 38.8157C19.3864 33.7569 17.7617 29.3045 15.3038 26.7258C15.1193 26.5328 14.9309 26.3504 14.7377 26.1786C14.0705 25.4746 13.4742 24.6549 12.9634 23.7399C11.5272 21.1823 10.6541 17.7988 10.6541 14.0887C10.6541 7.20711 13.6558 1.44736 17.6763 0C14.5396 2.25958 12.3555 7.3089 12.3555 13.1768C12.3555 18.2516 13.9899 22.7156 16.4604 25.2901C16.7158 25.5573 16.9829 25.8043 17.2587 26.0313C17.9346 26.7406 18.5386 27.5677 19.0553 28.4923C20.4915 31.0498 21.3646 34.4355 21.3646 38.1467Z" fill="url(#paint0_linear)"/>
<path d="M9.93164 57.1958C1.48193 50.2729 0 44.4855 0 37.1947C0 28.6865 3.68734 13.6255 9.04598 10.2261C4.72838 13.8598 1.87621 28.0397 1.87621 35.4038C1.87621 42.5229 4.56134 48.7979 8.64101 52.4911C7.84178 48.7513 8.84884 38.5964 8.84884 38.5964C8.84884 38.5964 4.14377 39.8922 5.99084 38.7852C7.83888 37.6782 10.7513 36.3878 10.7513 36.3878C8.6148 50.5326 13.8482 61.1699 13.8482 61.1699L10.1744 61.7054" fill="url(#paint1_linear)"/>
<defs>
<linearGradient id="paint0_linear" x1="16.0089" y1="0" x2="16.0089" y2="54.1577" gradientUnits="userSpaceOnUse">
<stop offset="0.578125" stop-color="#639860"/>
<stop offset="1" stop-color="white"/>
</linearGradient>
<linearGradient id="paint1_linear" x1="6.92408" y1="10.2261" x2="6.92408" y2="61.7054" gradientUnits="userSpaceOnUse">
<stop offset="0.578125" stop-color="#639860"/>
<stop offset="1" stop-color="white"/>
</linearGradient>
</defs>
</svg>
