<svg width="22" height="22" viewBox="0 0 22 22" fill="none" xmlns="http://www.w3.org/2000/svg">
<path d="M3 0C1.355 0 0 1.355 0 3V19C0 20.645 1.355 22 3 22H19C20.645 22 22 20.645 22 19V3C22 1.355 20.645 0 19 0H3ZM16 3H19V6H16V3ZM11 7C13.223 7 15 8.777 15 11C15 13.223 13.223 15 11 15C8.777 15 7 13.223 7 11C7 8.777 8.777 7 11 7ZM2 9H5.34399C5.12099 9.625 5 10.301 5 11C5 14.301 7.699 17 11 17C14.301 17 17 14.301 17 11C17 10.301 16.879 9.625 16.656 9H20V19C20 19.566 19.566 20 19 20H3C2.434 20 2 19.566 2 19V9Z" fill="black"/>
</svg>
