<svg width="14" height="14" viewBox="0 0 14 14" fill="none" xmlns="http://www.w3.org/2000/svg">
<path d="M1.75 0.25C0.923 0.25 0.25 0.923 0.25 1.75V12.25C0.25 13.077 0.923 13.75 1.75 13.75H6.716H8.81097H12.25C13.077 13.75 13.75 13.077 13.75 12.25V1.75C13.75 0.923 13.077 0.25 12.25 0.25H1.75ZM1.75 1.75H12.25L12.251 12.25H8.81097V9.276H10.584L10.848 7.233H8.82202V5.931C8.82202 5.34 8.98698 4.94 9.83398 4.94H10.905V3.117C10.384 3.063 9.861 3.038 9.336 3.039C7.781 3.039 6.716 3.98799 6.716 5.73099V7.23599H4.95801V9.27899H6.716V12.25H1.75V1.75Z" fill="#3513F2"/>
</svg>
