<svg width="22" height="22" viewBox="0 0 22 22" fill="none" xmlns="http://www.w3.org/2000/svg">
<path d="M2.83301 0.5C1.54601 0.5 0.5 1.54601 0.5 2.83301V19.167C0.5 20.453 1.54601 21.5 2.83301 21.5H19.167C20.453 21.5 21.5 20.453 21.5 19.167V2.83301C21.5 1.54601 20.453 0.5 19.167 0.5H2.83301ZM2.83301 2.83301H19.167L19.169 19.167H2.83301V2.83301ZM13.994 5.29901C12.393 5.29901 11.093 6.60001 11.093 8.20001C11.093 8.49901 11.194 8.69999 11.194 8.89899C8.79397 8.79999 6.69401 7.59999 5.29401 5.89999C4.99401 6.30099 4.89301 6.79901 4.89301 7.29901C4.89301 8.29901 5.39397 9.101 6.19397 9.80099C5.69497 9.70099 5.29301 9.59999 4.89301 9.39999C4.89301 10.8 5.89302 11.901 7.19202 12.201C6.89302 12.301 6.69201 12.301 6.39301 12.301C6.29201 12.301 6.09099 12.201 5.89099 12.201C6.29099 13.301 7.292 14.199 8.591 14.199C7.592 14.899 6.29103 15.4 4.99103 15.4H4.29199C5.59099 16.199 7.09202 16.701 8.69202 16.701C13.992 16.701 16.893 12.3 16.893 8.5V8.099C17.393 7.699 17.891 7.19999 18.294 6.59799C17.694 6.89899 17.194 6.999 16.594 7.099C17.194 6.7 17.693 6.19899 17.893 5.49899C17.392 5.79899 16.793 6.09901 16.093 6.19901C15.592 5.59901 14.794 5.29901 13.994 5.29901Z" fill="black"/>
</svg>
