<svg width="26" height="32" viewBox="0 0 26 32" fill="none" xmlns="http://www.w3.org/2000/svg">
<path d="M12.7375 15.415C14.7875 15.415 16.5675 14.655 18.0175 13.156C19.4675 11.6582 20.2075 9.8249 20.2075 7.707C20.2075 5.5898 19.4675 3.7563 18.0175 2.2576C16.5675 0.759499 14.7875 0 12.7375 0C10.6875 0 8.90752 0.759497 7.45752 2.2578C6.00752 3.7561 5.26953 5.5896 5.26953 7.707C5.26953 9.8249 6.00752 11.6584 7.45752 13.157C8.90752 14.655 10.6875 15.415 12.7375 15.415ZM8.73755 3.5837C9.85755 2.4341 11.1575 1.8752 12.7375 1.8752C14.3075 1.8752 15.6175 2.4341 16.7275 3.5837C17.8475 4.7336 18.3875 6.0825 18.3875 7.707C18.3875 9.332 17.8475 10.6806 16.7275 11.8305C15.6175 12.98 14.3075 13.539 12.7375 13.539C11.1675 13.539 9.85755 12.98 8.73755 11.8305C7.62755 10.6809 7.08752 9.332 7.08752 7.707C7.08752 6.0825 7.62755 4.7336 8.73755 3.5837Z" fill="white"/>
<path d="M25.797 24.606C25.757 23.983 25.677 23.303 25.547 22.584C25.427 21.861 25.257 21.177 25.067 20.551C24.867 19.905 24.597 19.267 24.257 18.655C23.907 18.021 23.497 17.468 23.037 17.013C22.557 16.537 21.967 16.155 21.287 15.876C20.607 15.598 19.847 15.457 19.047 15.457C18.727 15.457 18.427 15.591 17.827 15.989C17.467 16.234 17.047 16.517 16.567 16.83C16.157 17.097 15.6069 17.347 14.9269 17.574C14.2669 17.795 13.5969 17.908 12.9269 17.908C12.2669 17.908 11.5969 17.795 10.9269 17.574C10.2469 17.348 9.697 17.097 9.297 16.83C8.827 16.52 8.39698 16.237 8.02698 15.988C7.43698 15.591 7.13696 15.457 6.81696 15.457C6.00696 15.457 5.25798 15.598 4.57898 15.876C3.89698 16.154 3.30695 16.537 2.82495 17.013C2.36395 17.468 1.95294 18.021 1.60394 18.655C1.26794 19.267 0.994983 19.905 0.794983 20.552C0.600983 21.177 0.438988 21.861 0.312988 22.584C0.187988 23.302 0.103951 23.982 0.0619507 24.607C0.0209507 25.218 0 25.854 0 26.497C0 28.167 0.513992 29.519 1.52899 30.517C2.53099 31.501 3.85598 32 5.46698 32H20.397C22.007 32 23.337 31.501 24.337 30.517C25.347 29.52 25.8669 28.167 25.8669 26.496C25.8669 25.852 25.847 25.216 25.797 24.606ZM23.077 29.158C22.417 29.809 21.537 30.125 20.397 30.125H5.46698C4.32198 30.125 3.44294 29.809 2.78094 29.158C2.13194 28.52 1.81696 27.65 1.81696 26.497C1.81696 25.897 1.83596 25.305 1.87396 24.737C1.91096 24.179 1.98795 23.567 2.10095 22.916C2.21295 22.273 2.35496 21.67 2.52496 21.123C2.68696 20.6 2.90896 20.081 3.18396 19.582C3.44596 19.106 3.74799 18.697 4.08099 18.368C4.39199 18.06 4.78495 17.808 5.24695 17.619C5.67695 17.445 6.15694 17.349 6.67694 17.334C6.73694 17.369 6.85699 17.436 7.03699 17.56C7.40699 17.811 7.84696 18.097 8.31696 18.411C8.85696 18.764 9.54694 19.083 10.3669 19.358C11.2169 19.64 12.0769 19.783 12.9269 19.783C13.7869 19.783 14.647 19.64 15.487 19.358C16.317 19.083 17.007 18.764 17.547 18.411C18.027 18.089 18.447 17.811 18.827 17.56C19.007 17.436 19.117 17.369 19.187 17.334C19.707 17.349 20.1869 17.445 20.6169 17.619C21.0769 17.808 21.467 18.06 21.777 18.368C22.117 18.697 22.4169 19.105 22.6769 19.582C22.9569 20.081 23.177 20.6 23.337 21.123C23.507 21.67 23.647 22.273 23.757 22.915C23.877 23.568 23.947 24.18 23.987 24.737C24.027 25.304 24.047 25.895 24.047 26.497C24.047 27.65 23.727 28.52 23.077 29.158Z" fill="white"/>
</svg>
