<svg width="35" height="22" viewBox="0 0 35 22" fill="none" xmlns="http://www.w3.org/2000/svg">
<path d="M23.967 0C21.55 0 19.32 0.789985 17.5 2.10999C15.68 0.789985 13.45 0 11.033 0C4.94902 0 0 4.93 0 11C0 17.07 4.94902 22 11.033 22C13.45 22 15.68 21.21 17.5 19.89C19.32 21.21 21.55 22 23.967 22C30.051 22 35 17.07 35 11C35 4.93 30.051 0 23.967 0ZM17.5 16.86C16.087 15.31 15.217 13.25 15.217 11C15.217 8.75 16.087 6.69001 17.5 5.14001C18.913 6.69001 19.783 8.75 19.783 11C19.783 13.25 18.913 15.31 17.5 16.86ZM23.967 19.72C22.224 19.72 20.603 19.21 19.237 18.33C20.989 16.38 22.065 13.82 22.065 11C22.065 8.18 20.989 5.61998 19.237 3.66998C20.603 2.78998 22.224 2.28003 23.967 2.28003C28.792 2.28003 32.717 6.19 32.717 11C32.717 15.81 28.792 19.72 23.967 19.72Z" fill="black"/>
</svg>
