<svg width="50" height="22" viewBox="0 0 50 22" fill="none" xmlns="http://www.w3.org/2000/svg">
<path d="M7.38599 0C3.32699 0 0 2.15002 0 4.77002V17.23C0 19.85 3.32699 22 7.38599 22H42.614C46.673 22 50 19.85 50 17.23V4.77002C50 2.15002 46.673 0 42.614 0H7.38599ZM7.38599 2.20001H42.614C44.83 2.20001 46.591 3.34002 46.591 4.77002V17.23C46.591 18.66 44.83 19.8 42.614 19.8H7.38599C5.16999 19.8 3.409 18.66 3.409 17.23V4.77002C3.409 3.34002 5.16999 2.20001 7.38599 2.20001ZM29.721 6.96997C26.403 6.96997 24.689 8.02999 24.689 9.37C24.689 11.79 29.064 11.46 29.064 12.7C29.064 12.92 28.807 13.41 26.986 13.41C25.161 13.41 23.959 12.96 23.959 12.96L23.413 14.59C23.413 14.59 24.582 15.03 26.842 15.03C29.102 15.03 32.238 13.9 32.238 12.28C32.237 10.33 27.861 10.1899 27.861 9.31995C27.861 8.86995 28.409 8.54004 29.978 8.54004C30.998 8.54004 32.164 9.04004 32.164 9.04004L32.675 7.33997C32.675 7.33997 31.181 6.96997 29.721 6.96997ZM18.948 7.12H15.572L12.684 12.58C12.684 12.58 12.518 12.12 12.449 11.83C10.805 9.44996 8.13898 8.57996 8.13898 8.57996L10.671 14.79H14.147L18.948 7.12ZM20.195 7.12L18.324 14.79H21.478L23.386 7.12H20.195ZM37.329 7.12L32.151 14.79H35.283L35.931 13.7H39.879L40.219 14.79H43.089L40.647 7.12H37.329ZM4.63599 7.14001C4.63599 7.14001 10.857 8.35999 12.305 11.37L11.244 7.89001C11.244 7.89001 10.764 7.14001 9.51703 7.14001H4.63599ZM38.525 9.32996L39.424 12.23H36.808L38.525 9.32996Z" fill="black"/>
</svg>
