<svg width="776" height="432" viewBox="0 0 776 432" fill="none" xmlns="http://www.w3.org/2000/svg">
<path d="M428.128 188.63C427.372 192.606 426.465 196.542 425.408 200.437C425.293 200.89 425.165 201.335 425.037 201.787H410.331C409.078 201.789 407.878 202.287 406.992 203.173C406.106 204.059 405.608 205.26 405.607 206.513V248.451C405.161 249.281 404.709 250.105 404.257 250.929C401.922 255.182 399.492 259.388 397.008 263.54C356.51 331.021 300.026 387.49 232.543 427.963L236.539 418.943C235.074 418.842 233.603 418.741 232.139 418.64C200.25 416.459 168.253 414.042 137.113 406.872C104.536 399.372 72.668 386.363 47.1367 364.793C21.5985 343.216 2.87707 312.404 0.278569 279.067C-0.587831 267.61 0.570568 256.09 3.70057 245.035C9.68657 223.756 22.7663 204.609 41.6364 193.281C71.2777 175.492 109.942 179.117 141.19 193.916C172.431 208.707 197.861 233.194 222.69 257.254C197.621 214.252 162.717 177.807 120.842 150.911C106.966 142.027 92.24 134.114 80.443 122.604C68.6522 111.1 59.9528 94.9718 62.0384 78.6268C64.4071 60.0888 79.586 46.0188 94.791 35.1698C100.865 30.8358 107.135 26.7248 113.6 22.9438C131.843 12.2498 151.577 4.18282 172.417 1.19182C200.648 -2.86518 231.14 3.29183 252.784 21.8708C277.168 42.8058 287.169 76.5678 286.218 108.865C301.241 87.0188 324.41 70.2958 350.576 69.5868C377.74 68.8578 403.562 86.0258 417.168 109.561C430.767 133.088 433.21 161.929 428.128 188.63Z" fill="#E6E6E6"/>
<path d="M256.26 279.361C272.171 277.96 286.868 276.322 302.285 271.958C317.23 267.728 331.61 260.646 342.249 249.084C353.692 236.647 359.868 220.496 364.226 204.418C366.656 195.454 368.653 186.364 370.537 177.272C372.581 167.406 374.397 157.497 375.985 147.544C379.147 127.733 381.404 107.805 382.756 87.7608C382.92 85.3278 383.07 82.8939 383.206 80.4589C383.29 78.9569 380.955 78.9619 380.871 80.4589C379.759 100.217 377.761 119.898 374.874 139.502C372.026 158.763 368.381 177.941 363.757 196.856C359.84 212.881 354.768 229.156 344.721 242.495C335.3 255.005 321.692 263.179 307 268.067C292.049 273.04 276.285 275.026 260.662 276.502C258.745 276.684 258.178 276.856 256.26 277.025C254.775 277.156 254.761 279.493 256.26 279.361Z" fill="white"/>
<path d="M5.04788 246.758C25.1217 247.872 44.9913 251.375 64.2366 257.192C83.49 262.997 101.992 271.053 119.359 281.193C136.141 290.999 151.719 302.732 165.779 316.154C179.424 329.188 191.584 343.693 202.039 359.403C212.541 375.153 221.245 392.031 227.986 409.721C228.808 411.886 229.6 414.062 230.362 416.25C230.854 417.66 233.11 417.053 232.613 415.629C226.306 397.565 217.992 380.267 207.826 364.059C197.662 347.85 185.733 332.818 172.258 319.237C158.568 305.447 143.331 293.283 126.851 282.989C92.249 261.428 53.0268 248.384 12.4066 244.93C9.95628 244.724 7.50338 244.555 5.04788 244.422C3.54628 244.34 3.55088 246.676 5.04788 246.758Z" fill="white"/>
<path d="M114.231 25.6817C127.065 29.7657 139.231 35.7117 150.338 43.3327C161.688 51.1717 172.039 60.3667 181.162 70.7147C190.776 81.5997 199.323 93.3837 206.686 105.903C214.496 119.121 221.281 132.919 226.981 147.176C232.85 161.812 237.786 176.806 241.76 192.067C245.799 207.509 248.954 223.169 251.21 238.97C253.454 254.604 254.812 270.353 255.278 286.14C255.747 301.236 255.301 316.347 253.942 331.389C252.699 345.422 250.429 359.346 247.15 373.047C244.239 385.422 240.135 397.486 234.898 409.069C233.684 411.698 232.397 414.29 231.036 416.847C230.33 418.173 232.345 419.354 233.052 418.026C238.84 406.962 243.462 395.326 246.843 383.305C250.636 369.924 253.386 356.268 255.067 342.461C256.931 327.482 257.838 312.399 257.784 297.304C257.751 281.445 256.807 265.602 254.958 249.852C253.108 233.905 250.361 218.075 246.731 202.437C243.109 186.774 238.515 171.352 232.976 156.26C227.637 141.651 221.244 127.448 213.848 113.765C206.804 100.708 198.595 88.3137 189.322 76.7347C180.515 65.7087 170.46 55.7417 159.359 47.0327C148.654 38.6587 136.826 31.8337 124.22 26.7567C121.14 25.5307 118.017 24.4217 114.851 23.4297C113.414 22.9777 112.8 25.2317 114.231 25.6817Z" fill="white"/>
<path d="M252.743 432C344.994 432 419.779 428.977 419.779 425.249C419.779 421.52 344.994 418.498 252.743 418.498C160.491 418.498 85.706 421.52 85.706 425.249C85.706 428.977 160.491 432 252.743 432Z" fill="#E6E6E6"/>
<path d="M400.321 213.797C400.238 214.162 400.184 214.532 400.16 214.905L371.168 231.635L364.121 227.577L356.609 237.415L371.684 248.163L404.759 222.062C406.108 222.561 407.577 222.638 408.971 222.281C410.364 221.925 411.617 221.153 412.561 220.068C413.505 218.982 414.097 217.635 414.257 216.205C414.417 214.775 414.138 213.331 413.458 212.063C412.777 210.795 411.727 209.765 410.446 209.109C409.166 208.453 407.717 208.203 406.291 208.391C404.865 208.58 403.53 209.198 402.463 210.163C401.397 211.129 400.65 212.397 400.321 213.797Z" fill="#FFB8B8"/>
<path d="M308.665 423.341L283.51 416.748L286.057 407.026L301.493 411.072C304.07 411.747 306.274 413.419 307.619 415.72C308.964 418.021 309.341 420.763 308.665 423.341Z" fill="#2F2E41"/>
<path d="M383.527 418.767L357.928 423.341L356.161 413.447L371.869 410.64C373.168 410.408 374.5 410.434 375.789 410.717C377.078 411 378.298 411.534 379.381 412.289C380.463 413.043 381.386 414.004 382.098 415.115C382.809 416.227 383.295 417.468 383.527 418.767Z" fill="#2F2E41"/>
<path d="M353.639 267.948L369.146 406.882L356.339 411.747L332.718 318.581L299.831 403.766L285.813 404.545C285.813 404.545 305.047 271.999 319.302 268.987L353.639 267.948Z" fill="#2F2E41"/>
<path d="M340.614 196.978C349.769 196.978 357.191 189.554 357.191 180.397C357.191 171.239 349.769 163.815 340.614 163.815C331.46 163.815 324.038 171.239 324.038 180.397C324.038 189.554 331.46 196.978 340.614 196.978Z" fill="#FFB8B8"/>
<path d="M347.729 203.934L329.816 201.597C329.816 201.597 318.134 215.62 318.912 239.771C319.691 263.923 316.965 271.324 316.965 271.324L354.314 271.999C348.915 264.573 371.498 221.921 347.729 203.934Z" fill="#6E577D"/>
<path d="M357.351 275.374C356.978 275.377 356.605 275.409 356.237 275.471L333.321 251.068L335.657 243.277L324.364 238.213L317.355 255.353L350.325 281.587C350.147 283.015 350.409 284.463 351.074 285.739C351.74 287.014 352.778 288.057 354.05 288.728C355.323 289.399 356.769 289.667 358.197 289.496C359.625 289.324 360.968 288.722 362.045 287.769C363.123 286.817 363.885 285.558 364.23 284.161C364.576 282.764 364.488 281.296 363.978 279.95C363.469 278.605 362.562 277.446 361.378 276.629C360.194 275.811 358.79 275.374 357.351 275.374Z" fill="#FFB8B8"/>
<path d="M332.252 213.428L321.638 239.382L336.436 246.394L348.691 220.709C349.218 219.604 349.514 218.403 349.561 217.179C349.608 215.956 349.405 214.736 348.964 213.593C348.523 212.451 347.853 211.411 346.996 210.537C346.139 209.662 345.113 208.972 343.98 208.509C342.887 208.062 341.717 207.834 340.536 207.839C339.355 207.844 338.187 208.082 337.097 208.539C336.008 208.996 335.02 209.663 334.189 210.502C333.357 211.341 332.699 212.335 332.252 213.428Z" fill="#6E577D"/>
<path d="M336.278 195.471C338.876 193.972 339.153 190.357 338.8 187.378C338.447 184.4 337.857 181.079 339.608 178.644C341.696 175.737 345.893 175.679 349.471 175.584C353.048 175.489 357.405 174.441 358.332 170.984C358.944 168.699 357.634 166.247 355.753 164.813C353.873 163.379 351.52 162.745 349.234 162.142C344.118 160.794 338.837 159.435 333.599 160.176C328.411 160.91 323.721 163.657 320.542 167.824C317.364 171.991 315.954 177.242 316.617 182.441C317.464 189.092 318.694 191.996 317.887 194.928C316.384 200.39 309.902 203.899 309.773 209.562C309.672 213.992 313.584 217.41 317.401 219.659C320.428 221.443 323.695 222.957 327.184 223.375C330.673 223.793 334.429 222.993 337.028 220.628C340.38 217.577 341.209 212.48 340.248 208.05C339.287 203.62 336.821 199.685 334.382 195.865" fill="#2F2E41"/>
<path d="M649.918 200.437H410.33C408.72 200.44 407.177 201.081 406.038 202.22C404.9 203.358 404.259 204.903 404.256 206.513V360.438C404.259 362.049 404.9 363.593 406.038 364.732C407.177 365.871 408.72 366.512 410.33 366.514H649.918C651.528 366.512 653.072 365.871 654.21 364.732C655.349 363.593 655.989 362.049 655.992 360.438V206.513C655.989 204.903 655.349 203.358 654.21 202.22C653.072 201.081 651.528 200.44 649.918 200.437ZM654.642 360.438C654.641 361.691 654.143 362.892 653.257 363.778C652.371 364.664 651.17 365.163 649.918 365.164H410.33C409.078 365.163 407.877 364.664 406.991 363.778C406.106 362.892 405.608 361.691 405.606 360.438V206.513C405.608 205.26 406.106 204.059 406.991 203.173C407.877 202.287 409.078 201.789 410.33 201.787H649.918C651.17 201.789 652.371 202.287 653.257 203.173C654.143 204.059 654.641 205.26 654.642 206.513V360.438Z" fill="#6E577D"/>
<path d="M461.471 277.059H423.677C422.156 277.057 420.698 276.452 419.622 275.376C418.547 274.301 417.942 272.842 417.94 271.321V233.515C417.942 231.993 418.547 230.535 419.622 229.459C420.698 228.383 422.156 227.778 423.677 227.776H461.471C462.992 227.778 464.45 228.383 465.525 229.459C466.601 230.535 467.206 231.993 467.208 233.515V271.321C467.206 272.842 466.601 274.301 465.525 275.376C464.45 276.452 462.992 277.057 461.471 277.059Z" fill="#6E577D"/>
<path d="M637.44 317.235H422.824C421.66 317.235 420.544 316.772 419.722 315.949C418.899 315.126 418.437 314.01 418.437 312.846C418.437 311.682 418.899 310.566 419.722 309.743C420.544 308.92 421.66 308.458 422.824 308.458H637.44C638.604 308.458 639.719 308.92 640.542 309.743C641.365 310.566 641.827 311.682 641.827 312.846C641.827 314.01 641.365 315.126 640.542 315.949C639.719 316.772 638.604 317.235 637.44 317.235Z" fill="#CCCCCC"/>
<path d="M637.584 295.969H422.968C421.804 295.969 420.688 295.506 419.866 294.683C419.043 293.86 418.581 292.744 418.581 291.58C418.581 290.417 419.043 289.3 419.866 288.477C420.688 287.654 421.804 287.192 422.968 287.192H637.584C638.747 287.192 639.863 287.654 640.686 288.477C641.509 289.3 641.971 290.417 641.971 291.58C641.971 292.744 641.509 293.86 640.686 294.683C639.863 295.506 638.747 295.969 637.584 295.969Z" fill="#CCCCCC"/>
<path d="M531.626 266.932H499.906C498.742 266.932 497.626 266.47 496.804 265.647C495.981 264.824 495.519 263.708 495.519 262.544C495.519 261.38 495.981 260.264 496.804 259.441C497.626 258.618 498.742 258.156 499.906 258.156H531.626C532.789 258.156 533.905 258.618 534.728 259.441C535.55 260.264 536.013 261.38 536.013 262.544C536.013 263.708 535.55 264.824 534.728 265.647C533.905 266.47 532.789 266.932 531.626 266.932Z" fill="#CCCCCC"/>
<path d="M637.584 245.335H499.906C498.742 245.335 497.626 244.873 496.804 244.05C495.981 243.227 495.519 242.111 495.519 240.947C495.519 239.783 495.981 238.667 496.804 237.844C497.626 237.021 498.742 236.559 499.906 236.559H637.584C638.748 236.559 639.863 237.021 640.686 237.844C641.509 238.667 641.971 239.783 641.971 240.947C641.971 242.111 641.509 243.227 640.686 244.05C639.863 244.873 638.748 245.335 637.584 245.335Z" fill="#CCCCCC"/>
<path d="M775.994 424.5H283.99" stroke="#AD734B"/>
</svg>
